<?xml version="1.0"?>
<svg width="232" height="207.87212" xmlns="http://www.w3.org/2000/svg">
 <metadata id="metadata8">image/svg+xml</metadata>
 <defs>
  <clipPath clipPathUnits="userSpaceOnUse" id="clipPath20">
   <path d="m54.946522,62.836819l70.692829,0l0,-63.097995l-70.692829,0l0,63.097995z" id="path22"/>
  </clipPath>
 </defs>
 <g>
  <title>background</title>
  <rect fill="none" id="canvas_background" height="209.87212" width="234" y="-1" x="-1"/>
 </g>
 <g>
  <title>Layer 1</title>
  <g id="g10" transform="matrix(3.2289142891555582,0,0,-3.2082611676707145,-174.48642021207417,204.31538854683444) ">
   <g id="g12">
    <path fill="#2b8ee5" fill-rule="nonzero" d="m76.119812,6.738824l-14.172993,24.548998l14.172993,24.548996l28.345901,0l14.173943,-24.548996l-14.173943,-24.548998l-28.345901,0z" id="path14"/>
   </g>
   <g id="g16">
    <g id="g18" clip-path="url(#clipPath20)">
     <g id="g24">
      <path fill="#2b8ee5" fill-rule="nonzero" d="m80.161316,13.738823l20.262909,0l10.131973,17.549l-10.131973,17.548996l-20.262909,0l-10.132004,-17.548996l10.132004,-17.549zm24.304886,-14l-28.346901,0c-2.499985,0 -4.810974,1.334 -6.061989,3.500001l-14.172993,24.548999c-1.25,2.166 -1.25,4.834 0,7l14.172993,24.548996c1.251015,2.166004 3.562004,3.5 6.061989,3.5l28.346901,0c2.501007,0 4.810982,-1.333996 6.061996,-3.5l14.172951,-24.548996c1.250992,-2.166 1.250992,-4.834 0,-7l-14.172951,-24.548999c-1.251015,-2.166 -3.560989,-3.500001 -6.061996,-3.500001" id="path26"/>
     </g>
    </g>
   </g>
  </g>
  <g stroke="null" id="svg_18">
   <path stroke="null" id="svg_5" d="m104.259796,120.721283l-0.233109,0c-0.001892,0.025238 -0.006607,0.057571 -0.009476,0.082809l0.361008,0.974854c-0.050201,-0.389923 -0.090973,-0.75058 -0.118423,-1.057663z" fill="#FFFFFF"/>
   <path stroke="null" id="svg_6" d="m53.701752,77.9655l2.586563,0c1.34166,0 2.53923,0.919312 3.449768,2.962921c0.143066,0.306107 0.431122,0.459671 0.76651,0.306107l4.981781,-2.502289c0.335434,-0.152527 0.335434,-0.562668 0.191406,-0.867722c-0.670822,-1.32843 -1.341614,-2.45282 -2.203796,-3.422607c-1.628738,-1.83754 -3.83255,-2.809357 -6.994263,-2.809357l-2.778946,0c-5.940613,0 -9.629135,3.779144 -9.629135,9.295868l0,14.761093c0,5.515686 3.688522,9.295868 9.629135,9.295868l2.778946,0c2.730606,0 4.742111,-0.765747 6.275131,-2.145676c1.149277,-1.07283 2.108109,-2.450775 2.921997,-4.188293c0.143066,-0.306091 0.143066,-0.612198 -0.191406,-0.765762l-4.981812,-2.553787c-0.335388,-0.153519 -0.623413,0 -0.76651,0.306107c-0.909576,2.042618 -2.108124,3.013443 -3.449738,3.013443l-2.586609,0c-1.72438,0 -3.018616,-1.328415 -3.018616,-2.962936l0,-14.760056c0.001907,-1.634506 1.295166,-2.962921 3.019592,-2.962921z" fill="#FFFFFF"/>
   <path stroke="null" id="svg_7" d="m79.044693,104.985382l2.826324,0c5.748337,0 9.580826,-3.780182 9.580826,-9.295868l0,-14.761093c0,-5.56723 -3.832489,-9.295868 -9.580826,-9.295868l-2.826324,0c-5.796631,0 -9.580826,3.779144 -9.580826,9.295868l0,14.761093c-0.000916,5.515686 3.735901,9.295868 9.580826,9.295868zm-3.0186,-24.056961c0,-1.582962 1.388977,-2.962921 3.0186,-2.962921l2.826324,0c1.676086,0 2.922012,1.328415 2.922012,2.962921l0,14.761093c0,1.63446 -1.197586,2.962891 -2.922012,2.962891l-2.826324,0c-1.677002,0 -3.0186,-1.378937 -3.0186,-2.962891l0,-14.761093z" fill="#FFFFFF"/>
   <path stroke="null" id="svg_8" d="m119.428787,94.667191l0,-12.665924c0,-6.02684 -3.736816,-9.755539 -9.580826,-9.755539l-11.977005,0c-0.287048,0 -0.47937,0.153564 -0.47937,0.510178l0,31.155609c0,0.35759 0.192322,0.511169 0.47937,0.511169l11.977005,0c5.844009,0 9.580826,-3.780197 9.580826,-9.755493zm-6.61145,0.460648c0,1.63446 -1.341599,2.911377 -2.969376,2.911377l-5.221481,0c-0.383743,0 -0.52681,-0.153564 -0.52681,-0.511154l0,-18.386673c0,-0.357605 0.143066,-0.561676 0.52681,-0.561676l5.221481,0c1.627777,0 2.969376,1.429443 2.969376,2.961884l0,13.586243z" fill="#FFFFFF"/>
   <path stroke="null" id="svg_9" d="m140.252319,71.395157l-3.736816,0c-0.544769,0 -1.038422,0.339409 -1.218414,0.83342l-13.217255,31.297058c-0.162003,0.406082 -0.138336,0.832382 0.071976,1.169815c0.227417,0.367706 0.644287,0.578827 1.140808,0.578827l3.642059,0c0.786392,0 1.123718,-0.458618 1.25351,-0.808182l13.227646,-31.323273c0.168671,-0.418213 0.144958,-0.851608 -0.062531,-1.188995c-0.130768,-0.209152 -0.445313,-0.55867 -1.100983,-0.55867z" fill="#FFFFFF"/>
   <path stroke="null" id="svg_10" d="m150.199829,104.422684c0.335449,0 0.479477,-0.15358 0.479477,-0.511169l0,-7.149216c0,-4.749924 -0.143112,-8.734192 -0.28714,-10.572739l0.191406,-0.051498c0.19136,0.613174 0.622482,1.737518 1.006226,2.503265l7.856445,15.424744c0.096649,0.204071 0.335388,0.357635 0.527725,0.357635l4.885162,0c0.335388,0 0.480392,-0.153564 0.480392,-0.511154l0,-31.156647c0,-0.35759 -0.192383,-0.510178 -0.480392,-0.510178l-5.555954,0c-0.335434,0 -0.431107,0.153564 -0.431107,0.510178l0,7.252213c0,4.290359 0.143051,8.632187 0.2397,10.674805l-0.192322,0.051544c-0.142136,-0.510162 -0.621567,-1.68605 -1.006226,-2.502274l-7.856445,-15.681351c-0.094757,-0.204086 -0.287094,-0.306107 -0.526794,-0.306107l-4.982758,0c-0.287079,0 -0.479416,0.15358 -0.479416,0.510178l0,31.155609c0,0.357605 0.192337,0.511169 0.479416,0.511169l5.652603,0l0,0.000992z" fill="#FFFFFF"/>
   <path stroke="null" id="svg_11" d="m188.226227,73.930756c-1.58136,-1.480957 -3.592834,-2.298203 -6.466522,-2.298203l-3.496155,0c-5.940643,0 -9.580811,3.779144 -9.580811,9.295868l0,14.761093c0,5.61972 3.544464,9.295868 9.580811,9.295868l2.826294,0c5.939728,0 9.580811,-3.625626 9.580811,-9.295868l0,-8.122055c0,-0.35759 -0.143982,-0.510132 -0.47937,-0.510132l-10.778442,0c-0.287079,0 -0.478485,0.153519 -0.478485,0.510132l0,4.853027c0,0.35759 0.191406,0.511154 0.478485,0.511154l4.072235,0c0.335358,0 0.52774,0.152542 0.52774,0.510132l0,2.246704c0,1.685028 -1.197632,2.962936 -2.921997,2.962936l-2.826324,0c-1.676086,0 -3.019592,-1.328415 -3.019592,-2.962936l0,-14.760056c0,-1.634506 1.29422,-2.962921 3.019592,-2.962921l3.303833,0c1.341614,0 2.492798,0.919312 3.402344,2.962921c0.142151,0.306107 0.432068,0.459671 0.767487,0.306107l4.981781,-2.502289c0.335388,-0.152527 0.335388,-0.510132 0.19043,-0.817261c-0.766449,-1.63446 -1.628693,-2.961899 -2.684143,-3.984222z" fill="#FFFFFF"/>
   <path stroke="null" id="svg_12" d="m78.628784,122.712372c-2.634918,-1.072845 -5.460266,-1.838547 -5.460266,-4.137787c0,-1.838547 1.293259,-3.064957 2.970306,-3.064957l0.718201,0c1.629623,0 2.730606,0.818298 3.401428,2.605347c0.143051,0.45961 0.431076,0.561676 0.718155,0.409088l4.742111,-2.554764c0.288025,-0.152542 0.431076,-0.714218 0.143982,-1.225372c-0.383682,-0.766739 -0.862183,-1.533478 -1.437286,-2.196198c-1.676071,-1.992096 -4.071274,-3.422531 -7.569351,-3.422531l-0.718216,0c-5.987991,0 -9.676498,3.780136 -9.676498,9.550415c0,5.873322 3.545456,8.069473 7.952118,9.959564c2.874634,1.226395 5.36557,1.890091 5.36557,4.444916c0,2.092102 -1.53302,3.011368 -3.257446,3.011368l-1.197586,0c-1.628738,0 -2.730637,-0.817245 -3.401413,-2.604294c-0.144043,-0.45961 -0.431122,-0.562668 -0.719131,-0.407074l-4.742111,2.551758c-0.287094,0.153519 -0.431122,0.716232 -0.144028,1.227386c0.431107,0.816223 0.957916,1.633484 1.580383,2.347687c1.628708,1.940613 4.024887,3.27002 7.425339,3.27002l1.532043,0c6.084686,0 9.629181,-3.72963 9.629181,-9.500931c0.000961,-5.973328 -3.303848,-8.374542 -7.855484,-10.263641z" fill="#FFFFFF"/>
   <path stroke="null" id="svg_13" d="m106.487305,110.095963c-0.117493,-0.255585 -0.291855,-0.35759 -0.582733,-0.35759l-5.177887,0c-0.348709,0 -0.46524,0.102005 -0.581757,0.35759l-11.460617,31.157639c-0.175308,0.408112 0.058716,0.663681 0.581711,0.663681l5.68866,0l8.047806,-21.700104l8.047821,21.700104l6.315842,0c0.582687,0 0.757034,-0.255569 0.582687,-0.663681l-11.461533,-31.157639z" fill="#FFFFFF"/>
   <path stroke="null" id="svg_14" d="m142.918533,109.739349l-5.557892,0c-0.335388,0 -0.430145,0.15155 -0.430145,0.511169l0,7.25325c0,4.290314 0.143097,8.631149 0.239716,10.674805l-0.191376,0.050507c-0.144028,-0.511154 -0.623444,-1.68399 -1.007187,-2.503265l-7.855469,-15.679337c-0.09758,-0.205063 -0.28801,-0.307129 -0.526794,-0.307129l-4.983719,0c-0.286118,0 -0.478455,0.15155 -0.478455,0.511169l0,31.156647c0,0.35759 0.192337,0.511154 0.478455,0.511154l5.653564,0c0.335434,0 0.478455,-0.153564 0.478455,-0.511154l0,-7.15123c0,-4.750961 -0.14209,-8.734207 -0.286118,-10.571762l0.190445,-0.051498c0.191406,0.612137 0.622467,1.735489 1.007187,2.502243l7.855469,15.425812c0.096649,0.204025 0.335388,0.35759 0.527771,0.35759l4.886093,0c0.335388,0 0.478455,-0.153564 0.478455,-0.511154l0,-31.157639c0,-0.358627 -0.19136,-0.510178 -0.478455,-0.510178z" fill="#FFFFFF"/>
   <path stroke="null" id="svg_15" d="m160.820068,122.712372c-2.63588,-1.072845 -5.462173,-1.838547 -5.462173,-4.137787c0,-1.838547 1.29332,-3.064957 2.970322,-3.064957l0.718201,0c1.630554,0 2.731522,0.818298 3.401382,2.605347c0.143097,0.45961 0.432083,0.561676 0.720093,0.409088l4.742111,-2.554764c0.286133,-0.152542 0.432037,-0.714218 0.143066,-1.225372c-0.381836,-0.766739 -0.862183,-1.533478 -1.436371,-2.196198c-1.678009,-1.992096 -4.072205,-3.422531 -7.570282,-3.422531l-0.718201,0c-5.987076,0 -9.676559,3.780136 -9.676559,9.550415c0,5.873322 3.544525,8.069473 7.952133,9.959564c2.874664,1.226395 5.365555,1.890091 5.365555,4.444916c0,2.092102 -1.53302,3.011368 -3.257401,3.011368l-1.197617,0c-1.628708,0 -2.730652,-0.817245 -3.402405,-2.604294c-0.14209,-0.45961 -0.429169,-0.562668 -0.718155,-0.407074l-4.742111,2.551758c-0.28801,0.153519 -0.430145,0.716232 -0.144028,1.227386c0.430191,0.816223 0.957916,1.633484 1.58136,2.347687c1.628708,1.940613 4.022934,3.27002 7.425339,3.27002l1.532089,0c6.083679,0 9.630066,-3.72963 9.630066,-9.500931c0,-5.973328 -3.30571,-8.374542 -7.856415,-10.263641z" fill="#FFFFFF"/>
   <path stroke="null" id="svg_16" d="m48.608109,127.75528l11.880356,-8.828125c0.192337,-0.122223 0.287094,-0.307083 0.287094,-0.488937c0,-0.245483 -0.143066,-0.489975 -0.287094,-0.79808l-1.437286,-3.002319c-0.095734,-0.245468 -0.192337,-0.367691 -0.383743,-0.367691s-0.335388,0.122223 -0.718155,0.429352l-14.659302,10.970749c-0.143066,0.122269 -0.238785,0.245468 -0.238785,0.551575l0,4.230728c0,0.244492 0.095718,0.428314 0.238785,0.550537l14.419586,10.789978c0.431076,0.306091 0.814819,0.612198 0.95787,0.612198c0.144028,0 0.28801,-0.12326 0.383743,-0.368744l1.388992,-3.186172c0.144028,-0.368698 0.28801,-0.550552 0.28801,-0.797058c0,-0.183823 -0.095688,-0.367691 -0.28801,-0.490952l-11.832062,-8.70285c-0.19136,-0.183884 -0.335388,-0.367752 -0.335388,-0.552612c0,-0.18486 0.144028,-0.36972 0.335388,-0.551575z" fill="#FFFFFF"/>
   <path stroke="null" id="svg_17" d="m192.709106,125.670227l-14.41861,-10.788956c-0.431091,-0.306091 -0.813904,-0.612137 -0.958862,-0.612137c-0.144958,0 -0.287994,0.123215 -0.382751,0.367706l-1.389954,3.187164c-0.143066,0.367706 -0.286133,0.551575 -0.286133,0.797043c0,0.183884 0.093781,0.367706 0.286133,0.489975l11.832031,8.70488c0.191376,0.182831 0.335388,0.366714 0.335388,0.551575c0,0.183868 -0.143066,0.367737 -0.335388,0.550583l-11.880341,8.827087c-0.191406,0.122269 -0.287109,0.308121 -0.287109,0.489975c0,0.245483 0.142151,0.489929 0.287109,0.797058l1.438263,3.004318c0.095673,0.244446 0.191345,0.366714 0.382751,0.366714c0.192352,0 0.335388,-0.122269 0.717255,-0.428314l14.660217,-10.972824c0.144012,-0.123245 0.239716,-0.244492 0.239716,-0.551575l0,-4.228699c0,-0.243469 -0.095703,-0.429306 -0.239716,-0.551575z" fill="#FFFFFF"/>
  </g>
 </g>
</svg>