<?xml version="1.0" encoding="UTF-8" standalone="no"?>
<svg
   xmlns:dc="http://purl.org/dc/elements/1.1/"
   xmlns:cc="http://creativecommons.org/ns#"
   xmlns:rdf="http://www.w3.org/1999/02/22-rdf-syntax-ns#"
   xmlns:svg="http://www.w3.org/2000/svg"
   xmlns="http://www.w3.org/2000/svg"
   viewBox="0 0 88.366127 78.872124"
   height="78.872124"
   width="88.366127"
   xml:space="preserve"
   version="1.1"
   id="svg2"><metadata
     id="metadata8"><rdf:RDF><cc:Work
         rdf:about=""><dc:format>image/svg+xml</dc:format><dc:type
           rdf:resource="http://purl.org/dc/dcmitype/StillImage" /></cc:Work></rdf:RDF></metadata><defs
     id="defs6"><clipPath
       id="clipPath20"
       clipPathUnits="userSpaceOnUse"><path
         id="path22"
         d="m 0,63.098 70.693,0 L 70.693,0 0,0 0,63.098 Z" /></clipPath></defs><g
     transform="matrix(1.25,0,0,-1.25,0,78.872125)"
     id="g10"><g
       transform="translate(21.1733,7)"
       id="g12"><path
         id="path14"
         style="fill:#3bade2;fill-opacity:1;fill-rule:nonzero;stroke:none"
         d="M 0,0 -14.173,24.549 0,49.098 l 28.346,0 L 42.52,24.549 28.346,0 0,0 Z" /></g><g
       id="g16"><g
         clip-path="url(#clipPath20)"
         id="g18"><g
           transform="translate(25.2148,14)"
           id="g24"><path
             id="path26"
             style="fill:#3bade2;fill-opacity:1;fill-rule:nonzero;stroke:none"
             d="M 0,0 20.263,0 30.395,17.549 20.263,35.098 0,35.098 -10.132,17.549 0,0 Z m 24.305,-14 -28.347,0 c -2.5,0 -4.811,1.334 -6.062,3.5 l -14.173,24.549 c -1.25,2.166 -1.25,4.834 0,7 l 14.173,24.549 c 1.251,2.166 3.562,3.5 6.062,3.5 l 28.347,0 c 2.501,0 4.811,-1.334 6.062,-3.5 L 44.54,21.049 c 1.251,-2.166 1.251,-4.834 0,-7 L 30.367,-10.5 C 29.116,-12.666 26.806,-14 24.305,-14" /></g></g></g></g></svg>