<?xml version="1.0"?>
<svg width="232.00000000000003" height="207.87212" xmlns="http://www.w3.org/2000/svg">
 <metadata id="metadata8">image/svg+xml</metadata>
 <defs>
  <clipPath id="clipPath20" clipPathUnits="userSpaceOnUse">
   <path id="path22" d="m54.636822,63.148514l70.692829,0l0,-63.098l-70.692829,0l0,63.098z"/>
  </clipPath>
 </defs>
 <g>
  <title>background</title>
  <rect x="-1" y="-1" width="234" height="209.87212" id="canvas_background" fill="none"/>
 </g>
 <g>
  <title>Layer 1</title>
  <g opacity="0.94" id="svg_50">
   <path stroke-width="0" fill="#ffffff" id="svg_49" d="m-173.770721,-428.685303c-47.046631,0 -85.22937,38.182739 -85.22937,85.22934l0,397.737007c0,47.0466 38.182739,85.229332 85.22937,85.229332l198.868465,0l0,28.40979c0,15.653809 12.756042,28.409805 28.40979,28.409805l113.639103,0c15.653824,0 28.409836,-14.6595 28.409836,-28.409805l0,-28.40979l198.868423,0c47.046631,0 85.22937,-38.182732 85.22937,-85.229332l0,-397.737007c0,-47.0466 -38.182739,-85.22934 -85.22937,-85.22934l-568.195618,0zm0,56.81955l568.195618,0c15.65387,0 28.40979,12.756012 28.40979,28.40979l0,340.917397c0,15.653809 -12.75592,28.409821 -28.40979,28.409821l-568.195618,0c-15.653809,0 -28.409851,-12.756012 -28.409851,-28.409821l0,-340.917397c0,-15.653778 12.756042,-28.40979 28.409851,-28.40979zm568.195618,425.25898c16.278809,0 29.297668,13.04718 29.297668,29.297577c0,16.278809 -13.01886,29.297607 -29.297668,29.297607c-16.221924,0 -29.297546,-13.018799 -29.297546,-29.297607c0,-16.250397 13.075623,-29.297577 29.297546,-29.297577zm-482.966278,171.346458c-15.653778,0 -28.40979,28.40979 -28.40979,28.40979l0,28.409851l454.556549,0l0,-28.409851c0,-15.653809 -12.755951,-28.40979 -28.40979,-28.40979l-397.736969,0z"/>
  </g>
  <g transform="rotate(2.6254851818084717 117.06269836425821,103.93589782714848) matrix(3.2289142891555582,0,0,-3.2082611676707145,-174.48642021207417,204.31538854683444) " id="g10">
   <g id="g12">
    <path id="path14" d="m76.119812,6.73882l-14.172993,24.549001l14.172993,24.548998l28.345901,0l14.17395,-24.548998l-14.17395,-24.549001l-28.345901,0z" fill-rule="nonzero" fill="#2b8ee5"/>
   </g>
   <g transform="rotate(2.7633259296417236 90.29322814941416,31.28781890869134) " id="g16">
    <g clip-path="url(#clipPath20)" id="g18">
     <g id="g24">
      <path id="path26" d="m80.161324,13.73882l20.262894,0l10.131981,17.549001l-10.131981,17.548998l-20.262894,0l-10.132011,-17.548998l10.132011,-17.549001zm24.304878,-14l-28.346901,0c-2.499977,0 -4.810974,1.334 -6.061989,3.5l-14.172993,24.549001c-1.25,2.165998 -1.25,4.833998 0,6.999998l14.172993,24.549c1.251015,2.166 3.562012,3.5 6.061989,3.5l28.346901,0c2.501007,0 4.810982,-1.334 6.061996,-3.5l14.172951,-24.549c1.250992,-2.166 1.250992,-4.834 0,-6.999998l-14.172951,-24.549001c-1.251015,-2.166 -3.560989,-3.5 -6.061996,-3.5" fill-rule="nonzero" fill="#2b8ee5"/>
     </g>
    </g>
   </g>
  </g>
  <g id="svg_18" stroke="null">
   <path fill="#FFFFFF" d="m104.259804,119.721283l-0.233116,0c-0.001884,0.025238 -0.006607,0.057564 -0.009476,0.082809l0.361008,0.974861c-0.050201,-0.389931 -0.090973,-0.75058 -0.118416,-1.057671z" id="svg_5" stroke="null"/>
  </g>
  <g stroke="null" id="svg_55">
   <path stroke="null" fill="#ffffff" d="m125.263618,66.892708c-2.011978,0 -3.648178,1.534782 -3.648178,3.422035l0,32.509422c0,1.887253 1.6362,3.422043 3.648178,3.422043l19.15287,0l0,-6.844093l-18.240837,0l0,-28.231857l23.713066,0l0,6.844086l4.560211,0l0,-7.6996c0,-1.887253 -1.636215,-3.422035 -3.648163,-3.422035l-25.537148,0zm22.801018,11.97715c-1.508514,0 -2.736099,1.151527 -2.736099,2.566521l0,24.80983c0,1.415016 1.227585,2.566536 2.736099,2.566536l16.416763,0c1.508514,0 2.736115,-1.15152 2.736115,-2.566536l0,-24.80983c0,-1.414993 -1.2276,-2.566521 -2.736115,-2.566521l-16.416763,0zm1.824081,4.277542l12.768585,0l0,18.821259l-12.768585,0l0,-18.821259zm-11.856522,17.965744c0.756073,0 1.368042,0.574898 1.368042,1.283257c0,0.708359 -0.611969,1.283257 -1.368042,1.283257c-0.756104,0 -1.368088,-0.574898 -1.368088,-1.283257c0,-0.708359 0.611984,-1.283257 1.368088,-1.283257zm18.240829,2.566513c0.755157,0 1.368073,0.574921 1.368073,1.283287c0,0.708359 -0.612915,1.283264 -1.368073,1.283264c-0.755173,0 -1.368057,-0.574905 -1.368057,-1.283264c0,-0.708366 0.612885,-1.283287 1.368057,-1.283287z" id="svg_54"/>
  </g>
  <g transform="rotate(1.065221905708313 86.35877227783268,83.7906188964847) " stroke="null" id="svg_60">
   <path fill="#ffffff" transform="rotate(-0.3167251944541931 86.35877227782814,83.79062652587845) " stroke="null" id="svg_59" d="m64.910286,59.700165c-3.551857,0 -6.434532,2.590202 -6.434532,5.781708l0,26.981308c0,3.191505 2.882675,5.781715 6.434532,5.781715l15.013939,0l0,1.927231c0,1.061905 0.963043,1.927246 2.144852,1.927246l8.579391,0c1.181816,0 2.144852,-0.994461 2.144852,-1.927246l0,-1.927231l15.013939,0c3.551865,0 6.43454,-2.59021 6.43454,-5.781715l0,-26.981308c0,-3.191505 -2.882675,-5.781708 -6.43454,-5.781708l-42.896973,0zm0,3.854469l42.896973,0c1.181816,0 2.144852,0.865334 2.144852,1.927238l0,23.126839c0,1.061897 -0.963036,1.927246 -2.144852,1.927246l-42.896973,0c-1.181801,0 -2.144836,-0.865349 -2.144836,-1.927246l0,-23.126839c0,-1.061905 0.963036,-1.927238 2.144836,-1.927238zm42.896973,28.848335c1.228989,0 2.211876,0.885063 2.211876,1.98745c0,1.104309 -0.982887,1.987457 -2.211876,1.987457c-1.224709,0 -2.211868,-0.883148 -2.211868,-1.987457c0,-1.102386 0.98716,-1.98745 2.211868,-1.98745zm-36.462425,11.623634c-1.181808,0 -2.144852,1.927231 -2.144852,1.927231l0,1.927246l34.317589,0l0,-1.927246c0,-1.061905 -0.963051,-1.927231 -2.144859,-1.927231l-30.027878,0z"/>
  </g>
  <text style="cursor: text;" font-weight="bold" font-style="normal" stroke="null" transform="matrix(0.8975689943437429,0,0,1,-34.47216901886538,0) " xml:space="preserve" text-anchor="left" font-family="Helvetica, Arial, sans-serif" font-size="22" id="svg_61" y="145.43566" x="89.035622" stroke-opacity="null" stroke-width="0" fill="#ffffff">Cross-platform</text>
 </g>
</svg>