<?xml version="1.0"?>
<svg width="232" height="207.87212" xmlns="http://www.w3.org/2000/svg">
 <metadata id="metadata8">image/svg+xml</metadata>
 <defs>
  <clipPath id="clipPath20" clipPathUnits="userSpaceOnUse">
   <path id="path22" d="m54.636822,63.148514l70.692829,0l0,-63.098l-70.692829,0l0,63.098z"/>
  </clipPath>
 </defs>
 <g>
  <title>background</title>
  <rect x="-1" y="-1" width="234" height="209.87212" id="canvas_background" fill="none"/>
 </g>
 <g>
  <title>Layer 1</title>
  <g transform="rotate(2.6254851818084717 117.06269836425821,103.93589782714848) matrix(3.2289142891555582,0,0,-3.2082611676707145,-174.48642021207417,204.31538854683444) " id="g10">
   <g id="g12">
    <path id="path14" d="m76.119812,6.73882l-14.172993,24.549001l14.172993,24.548998l28.345901,0l14.17395,-24.548998l-14.17395,-24.549001l-28.345901,0z" fill-rule="nonzero" fill="#2b8ee5"/>
   </g>
   <g transform="rotate(2.7633259296417236 90.29322814941416,31.28781890869134) " id="g16">
    <g clip-path="url(#clipPath20)" id="g18">
     <g id="g24">
      <path id="path26" d="m80.161324,13.73882l20.262894,0l10.131981,17.549001l-10.131981,17.548998l-20.262894,0l-10.132011,-17.548998l10.132011,-17.549001zm24.304878,-14l-28.346901,0c-2.499977,0 -4.810974,1.334 -6.061989,3.5l-14.172993,24.549001c-1.25,2.165998 -1.25,4.833998 0,6.999998l14.172993,24.549c1.251015,2.166 3.562012,3.5 6.061989,3.5l28.346901,0c2.501007,0 4.810982,-1.334 6.061996,-3.5l14.172951,-24.549c1.250992,-2.166 1.250992,-4.834 0,-6.999998l-14.172951,-24.549001c-1.251015,-2.166 -3.560989,-3.5 -6.061996,-3.5" fill-rule="nonzero" fill="#2b8ee5"/>
     </g>
    </g>
   </g>
  </g>
  <g id="svg_18" stroke="null">
   <path fill="#FFFFFF" d="m104.259804,119.721283l-0.233116,0c-0.001884,0.025238 -0.006607,0.057564 -0.009476,0.082809l0.361008,0.974861c-0.050201,-0.389931 -0.090973,-0.75058 -0.118416,-1.057671z" id="svg_5" stroke="null"/>
  </g>
  <g id="svg_45">
   <g transform="matrix(0.6645333065080763,0,0,0.6645333065080763,0,0) " id="svg_30"/>
   <g transform="matrix(0.6645333065080763,0,0,0.6645333065080763,0,0) " id="svg_28">
    <g id="svg_29"/>
   </g>
   <g transform="matrix(0.6645333065080763,0,0,0.6645333065080763,0,0) " id="svg_26">
    <g id="svg_27"/>
   </g>
   <g transform="matrix(0.6645333065080763,0,0,0.6645333065080763,0,0) " id="svg_21">
    <g id="svg_25"/>
    <g id="svg_24"/>
    <g id="svg_23">
     <g id="svg_32">
      <g id="svg_33">
       <circle id="svg_34" r="3.124" cy="120.817096" cx="186.20909" fill="#FFFFFF"/>
       <path id="svg_35" d="m213.072083,112.578094c-1.309998,-8.368996 -8.529999,-14.778999 -17.26799,-14.778999c-4.666,0 -8.894012,1.836998 -12.031006,4.813004c-4.275986,-5.342003 -11.177994,-8.813004 -18.968994,-8.813004c-12.979004,0 -23.5,9.625999 -23.5,21.5c0,0.314003 0.011002,0.625999 0.026001,0.937004c-1.298996,-0.279999 -2.643005,-0.437004 -4.026001,-0.437004c-10.493004,0 -19,8.507004 -19,19.000008c0,10.419983 8.389999,19.598984 18.781006,19.727997l0,-0.494003l0.121994,0c0.033005,0 0.063995,0.00499 0.097,0.00499s0.063995,-0.00499 0.097,-0.00499l17.294998,0c0.037003,0 0.072006,0.00499 0.108994,0.00499s0.072006,-0.00499 0.109009,-0.00499l17.781998,0c0.037003,0 0.072006,0.00499 0.108994,0.00499s0.072006,-0.00499 0.109009,-0.00499l33.173004,0l0,0.488998c0.238998,0.006012 0.477997,0.015991 0.718994,0.015991c12.979004,0 23.5,-9.365982 23.5,-21.23999c-0.001007,-9.887001 -7.298996,-18.209999 -17.234009,-20.720001zm-33.168991,23.598999l-3.081009,1.096008c-0.222992,0.772003 -0.524994,1.509995 -0.906982,2.199997l1.401993,2.949997c-0.756012,1.001007 -1.647995,1.893005 -2.649002,2.649002l-2.949997,-1.401993c-0.690002,0.381989 -1.427994,0.68399 -2.199997,0.906998l-1.096008,3.080994c-0.613007,0.085007 -1.237,0.132004 -1.873993,0.132004c-0.636017,0 -1.261017,-0.046997 -1.874008,-0.132004l-1.095993,-3.080994c-0.772003,-0.223007 -1.51001,-0.525009 -2.200012,-0.906998l-2.949982,1.401993c-1.001007,-0.755997 -1.893021,-1.647995 -2.649017,-2.649002l1.402008,-2.949997c-0.382004,-0.690002 -0.68399,-1.427002 -0.906998,-2.199997l-3.081009,-1.096008c-0.084991,-0.613007 -0.132996,-1.237991 -0.132996,-1.873993c0,-0.636002 0.046997,-1.261002 0.132996,-1.874008l3.081009,-1.095993c0.223007,-0.772003 0.524994,-1.51001 0.906998,-2.200012l-1.402008,-2.949989c0.755997,-1.000999 1.64801,-1.892998 2.649017,-2.649002l2.949982,1.402c0.690002,-0.382004 1.427002,-0.683998 2.200012,-0.906998l1.095993,-3.081001c0.612991,-0.084999 1.237,-0.132004 1.874008,-0.132004c0.635986,0 1.260986,0.047005 1.873993,0.132004l1.096008,3.081001c0.772003,0.223 1.509995,0.524994 2.199997,0.906998l2.949997,-1.402c1.001007,0.756004 1.89299,1.648003 2.649002,2.649002l-1.401993,2.949989c0.381989,0.690002 0.68399,1.427017 0.906982,2.200012l3.081009,1.095993c0.085007,0.613007 0.132996,1.237 0.132996,1.874008c-0.001007,0.636993 -0.047989,1.261993 -0.132996,1.873993zm15.654007,-14.047997l-2.157013,0.766998c-0.155991,0.541 -0.367996,1.056999 -0.634995,1.540001l0.98201,2.064995c-0.529007,0.701004 -1.154007,1.325005 -1.854004,1.854012l-2.065002,-0.98201c-0.483002,0.267006 -0.999008,0.479004 -1.540009,0.63501l-0.766998,2.156998c-0.429001,0.059998 -0.865997,0.092987 -1.311996,0.092987s-0.882996,-0.03299 -1.311996,-0.092987l-0.766998,-2.156998c-0.541016,-0.156006 -1.057007,-0.368004 -1.540009,-0.63501l-2.065002,0.98201c-0.700989,-0.529007 -1.324997,-1.154007 -1.854004,-1.854012l0.98201,-2.064995c-0.266998,-0.483002 -0.479004,-0.999001 -0.634995,-1.540001l-2.157013,-0.766998c-0.059998,-0.429001 -0.092987,-0.866005 -0.092987,-1.311996c0,-0.445 0.03299,-0.883003 0.092987,-1.312004l2.157013,-0.766998c0.155991,-0.541 0.367996,-1.057007 0.634995,-1.540001l-0.98201,-2.065002c0.529007,-0.700996 1.154007,-1.324997 1.854004,-1.853996l2.065002,0.981995c0.483002,-0.266998 0.998993,-0.478996 1.540009,-0.635002l0.766998,-2.15699c0.429001,-0.060005 0.865997,-0.093002 1.311996,-0.093002s0.882996,0.032997 1.311996,0.093002l0.766998,2.15699c0.541,0.156006 1.057007,0.368004 1.540009,0.635002l2.065002,-0.981995c0.700989,0.528999 1.324997,1.153999 1.854004,1.853996l-0.98201,2.065002c0.266998,0.482994 0.479004,0.999001 0.634995,1.540001l2.157013,0.766998c0.059998,0.429001 0.092987,0.865997 0.092987,1.312004c0,0.444992 -0.03299,0.882996 -0.092987,1.311996z" fill="#FFFFFF"/>
       <circle id="svg_36" r="4.463" cy="134.304096" cx="166.54809" fill="#FFFFFF"/>
      </g>
      <g id="svg_37">
       <path id="svg_38" d="m99.449089,191.512085l7.941002,0c1.707001,0 3.203995,0.121002 4.489998,0.362015c1.286003,0.240997 2.362,0.630997 3.229004,1.168991c0.865997,0.537994 1.517998,1.243011 1.958,2.115005c0.438995,0.871994 0.658997,1.944992 0.658997,3.219009c0,0.766998 -0.093002,1.483994 -0.278,2.151993s-0.458,1.255997 -0.816002,1.763c-0.359001,0.507004 -0.794998,0.931 -1.307999,1.270996c-0.514,0.339996 -1.103996,0.565994 -1.771996,0.677002l0,0.186005c0.679993,0.147995 1.313995,0.362 1.901993,0.639999c0.587006,0.278 1.101006,0.662003 1.540009,1.149994c0.438995,0.488998 0.784996,1.104004 1.038994,1.846008c0.253006,0.741989 0.379997,1.645996 0.379997,2.709c0,1.237 -0.216995,2.340988 -0.648994,3.311996c-0.432999,0.970993 -1.055,1.793991 -1.865005,2.468002c-0.810997,0.673996 -1.793999,1.190994 -2.949997,1.548996c-1.156998,0.358994 -2.464996,0.537994 -3.923996,0.537994l-9.574005,0l0,-27.126007l-0.001999,0zm5.751999,10.743011l2.987,0c0.717003,0 1.317001,-0.065002 1.800003,-0.194992s0.872002,-0.324997 1.168999,-0.584s0.510002,-0.584015 0.639999,-0.974014s0.195,-0.843994 0.195,-1.363998c0,-1.038986 -0.324997,-1.783997 -0.973999,-2.235992c-0.648994,-0.451004 -1.679001,-0.677002 -3.088997,-0.677002l-2.728004,0l0,6.029999zm0,4.563995l0,7.069l3.377007,0c0.753998,0 1.387993,-0.085999 1.901993,-0.259995c0.513,-0.173004 0.928001,-0.419998 1.243004,-0.742004c0.315002,-0.320999 0.541,-0.710999 0.676994,-1.168991c0.136002,-0.458008 0.204002,-0.965012 0.204002,-1.521011c0,-0.506989 -0.068001,-0.967987 -0.204002,-1.381989c-0.135994,-0.414001 -0.367996,-0.770004 -0.695999,-1.067001c-0.327995,-0.296997 -0.757996,-0.525009 -1.289993,-0.687012c-0.532005,-0.160995 -1.194,-0.240997 -1.985001,-0.240997l-3.228004,0z" fill="#FFFFFF"/>
       <path id="svg_39" d="m135.445099,218.638092l-1.095001,-2.819992l-0.167007,0c-0.408005,0.556992 -0.81601,1.035995 -1.224991,1.438004c-0.408005,0.401993 -0.854004,0.732986 -1.336014,0.992996s-1.023987,0.451004 -1.623993,0.574997c-0.600006,0.123993 -1.296005,0.186005 -2.087006,0.186005c-0.840996,0 -1.621002,-0.133011 -2.337997,-0.399002c-0.717995,-0.266006 -1.339005,-0.667999 -1.864998,-1.206009c-0.526001,-0.537994 -0.937004,-1.217987 -1.234001,-2.041c-0.296997,-0.821991 -0.445,-1.79599 -0.445,-2.921997c0,-2.201996 0.704994,-3.824997 2.114998,-4.871002c1.410004,-1.044998 3.519005,-1.623993 6.326996,-1.735001l3.303009,-0.110992l0,-1.559006c0,-0.853989 -0.248001,-1.483994 -0.742004,-1.893005c-0.494995,-0.40799 -1.188004,-0.611984 -2.078003,-0.611984s-1.759995,0.12999 -2.606995,0.389984c-0.848007,0.26001 -1.697998,0.606018 -2.551003,1.039017l-1.836998,-3.748001c1.039001,-0.581009 2.188995,-1.039001 3.451004,-1.373016s2.584991,-0.500992 3.970993,-0.500992c2.585007,0 4.567001,0.606003 5.947006,1.818008c1.378998,1.21199 2.069,3.056 2.069,5.528992l0,13.822998l-3.951996,0zm-1.670013,-9.610992l-1.873993,0.07399c-0.755005,0.025009 -1.391998,0.124008 -1.911011,0.297012c-0.519989,0.172989 -0.936996,0.404999 -1.251984,0.695999c-0.315002,0.291 -0.544006,0.636993 -0.687012,1.039001c-0.142998,0.401993 -0.212997,0.850998 -0.212997,1.345001c0,0.865997 0.210007,1.480988 0.630997,1.845993c0.420013,0.365005 0.971008,0.546997 1.651001,0.546997c0.520004,0 1.001999,-0.089005 1.447006,-0.268997c0.444992,-0.179001 0.832001,-0.445007 1.159988,-0.798004c0.328003,-0.352997 0.584,-0.785004 0.770004,-1.298996c0.186005,-0.513 0.278,-1.104004 0.278,-1.772003l0,-1.705994z" fill="#FFFFFF"/>
       <path id="svg_40" d="m153.852081,219.010101c-1.483994,0 -2.82399,-0.203995 -4.016983,-0.612c-1.194,-0.40799 -2.214005,-1.042007 -3.062012,-1.901993c-0.847992,-0.859009 -1.496994,-1.960007 -1.947998,-3.303009c-0.451996,-1.341995 -0.677002,-2.946991 -0.677002,-4.814987c0,-2.065018 0.23201,-3.794006 0.695999,-5.186005s1.119003,-2.507996 1.966995,-3.348999c0.847,-0.841003 1.868011,-1.44101 3.062012,-1.800003c1.192993,-0.358002 2.520004,-0.53801 3.979996,-0.53801c1.063004,0 2.121002,0.130005 3.173004,0.390015c1.050995,0.259995 2.041,0.625 2.968994,1.095001l-1.632996,4.304993c-0.81601,-0.358002 -1.602005,-0.651993 -2.356003,-0.880997c-0.75499,-0.229004 -1.472,-0.343002 -2.152008,-0.343002c-1.372986,0 -2.368988,0.52301 -2.986984,1.568008c-0.619003,1.044998 -0.928009,2.612991 -0.928009,4.703995c0,2.078003 0.309006,3.612 0.928009,4.60199c0.617996,0.990005 1.588989,1.484009 2.912994,1.484009c1.076004,0 2.053009,-0.139008 2.931992,-0.417007c0.878006,-0.278 1.775009,-0.633987 2.690018,-1.067001l0,4.713013c-0.458008,0.222992 -0.903015,0.42099 -1.335999,0.593994c-0.433014,0.173004 -0.869003,0.315002 -1.308014,0.427002c-0.438995,0.110992 -0.897003,0.194992 -1.372986,0.25c-0.479004,0.052994 -0.989014,0.080994 -1.53302,0.080994z" fill="#FFFFFF"/>
       <path id="svg_41" d="m169.623093,207.357101l2.077988,-3.154007l5.065002,-6.30899l6.383011,0l-7.496002,8.998993l7.978989,11.744995l-6.530991,0l-5.046997,-7.978989l-2.207993,1.520996l0,6.457001l-5.659012,0l0,-28.871002l5.659012,0l0,12.876999l-0.297012,4.712997l0.074005,0l0,0.001007z" fill="#FFFFFF"/>
       <path id="svg_42" d="m195.71109,219.010101c-1.484009,0 -2.85199,-0.21701 -4.100998,-0.649002c-1.25,-0.432999 -2.326004,-1.085007 -3.229004,-1.958008c-0.903,-0.871994 -1.604996,-1.972992 -2.106003,-3.302994c-0.500992,-1.330002 -0.750992,-2.891006 -0.750992,-4.684998c0,-1.818008 0.228989,-3.408005 0.686996,-4.769012c0.458008,-1.359985 1.097992,-2.495987 1.919998,-3.404984c0.822006,-0.909012 1.812012,-1.59201 2.969009,-2.050003c1.155991,-0.458008 2.440002,-0.687012 3.849991,-0.687012c1.373001,0 2.612991,0.208008 3.720001,0.622009c1.10701,0.415009 2.046997,1.024002 2.819992,1.828018c0.77301,0.804001 1.367004,1.79097 1.781006,2.959c0.414001,1.168991 0.622009,2.507996 0.622009,4.016983l0,2.746002l-12.654007,0c0.024002,0.792007 0.151001,1.506012 0.37999,2.143005c0.229019,0.636993 0.550018,1.175003 0.965012,1.613998c0.414001,0.438995 0.914993,0.776001 1.503006,1.011002c0.58699,0.235001 1.257996,0.352997 2.013,0.352997c0.630997,0 1.227997,-0.033997 1.790985,-0.102005c0.562012,-0.067993 1.110016,-0.169998 1.641998,-0.306c0.532013,-0.135986 1.058014,-0.306 1.577011,-0.509995s1.050995,-0.442001 1.595993,-0.714005l0,4.379013c-0.494995,0.259995 -0.992996,0.478989 -1.493988,0.658997c-0.501007,0.179993 -1.029999,0.330994 -1.585999,0.455002s-1.156998,0.212997 -1.800018,0.268997c-0.64299,0.054993 -1.347992,0.082993 -2.11499,0.082993zm-0.723999,-17.479004c-1.001999,0 -1.834,0.352997 -2.496002,1.057999c-0.662003,0.705002 -1.041992,1.811996 -1.140991,3.320999l7.218002,0c-0.013016,-0.630997 -0.093002,-1.212006 -0.241013,-1.744003c-0.147995,-0.531998 -0.370987,-0.992996 -0.667999,-1.382004s-0.667999,-0.695984 -1.113007,-0.917984s-0.964996,-0.335007 -1.55899,-0.335007z" fill="#FFFFFF"/>
       <path id="svg_43" d="m226.679092,218.638092l-5.658997,0l0,-12.115997c0,-1.496994 -0.226013,-2.619003 -0.677002,-3.367996c-0.452011,-0.748001 -1.171997,-1.123001 -2.162003,-1.123001c-0.742004,0 -1.360992,0.14801 -1.854996,0.445007c-0.494995,0.296997 -0.888016,0.735992 -1.178009,1.316986c-0.291,0.582001 -0.498001,1.299011 -0.621994,2.152008c-0.123993,0.854004 -0.186005,1.830994 -0.186005,2.931992l0,9.76001l-5.658997,0l0,-20.744003l4.322998,0l0.761002,2.653l0.315002,0c0.296997,-0.531998 0.658997,-0.988998 1.085007,-1.373001c0.426987,-0.382996 0.893997,-0.69899 1.401001,-0.945999c0.506989,-0.246994 1.044983,-0.430008 1.613983,-0.546997c0.569,-0.117004 1.150009,-0.17601 1.744003,-0.17601c1.014008,0 1.936005,0.145996 2.764999,0.436005c0.82901,0.291 1.540009,0.746002 2.134003,1.364014c0.593994,0.618988 1.050995,1.406982 1.373001,2.365997c0.320999,0.958984 0.481995,2.105988 0.481995,3.441986l0,13.526001l0.001007,0z" fill="#FFFFFF"/>
       <path id="svg_44" d="m238.609085,219.010101c-1.064011,0 -2.035004,-0.228989 -2.91301,-0.687012c-0.877991,-0.457993 -1.632996,-1.134995 -2.263992,-2.031998c-0.630997,-0.895996 -1.123001,-2.013 -1.475006,-3.348999s-0.528992,-2.882004 -0.528992,-4.638992c0,-1.780991 0.175995,-3.342987 0.528992,-4.684998c0.352997,-1.341995 0.854004,-2.467987 1.503006,-3.376999s1.425003,-1.59201 2.328995,-2.050003c0.903,-0.458008 1.897995,-0.687012 2.987,-0.687012c0.667999,0 1.279999,0.078003 1.837006,0.23201c0.557007,0.154999 1.058014,0.370987 1.503006,0.649002s0.843994,0.600006 1.197006,0.965012c0.352997,0.36499 0.664993,0.763992 0.936996,1.196991l0.186005,0c-0.074005,-0.481995 -0.143005,-0.971008 -0.20401,-1.466003c-0.061996,-0.419998 -0.11499,-0.869003 -0.15799,-1.345001c-0.042999,-0.475998 -0.065002,-0.917999 -0.065002,-1.327011l0,-6.64299l5.658997,0l0,28.871002l-4.322998,0l-1.095001,-2.689987l-0.240997,0c-0.26001,0.42099 -0.557007,0.819992 -0.891006,1.196991c-0.334,0.376999 -0.720993,0.701996 -1.160004,0.973999c-0.438995,0.272003 -0.93399,0.488998 -1.483994,0.649002c-0.550995,0.161987 -1.171997,0.242996 -1.865005,0.242996zm2.059998,-4.509003c0.667999,0 1.237,-0.113998 1.707001,-0.343002c0.470001,-0.229004 0.849991,-0.574997 1.140991,-1.039001c0.291,-0.464005 0.507004,-1.041992 0.649002,-1.735001c0.141998,-0.692001 0.219009,-1.502991 0.23201,-2.431l0,-0.612c0,-1.001999 -0.062012,-1.893005 -0.186005,-2.671997c-0.124008,-0.779007 -0.328003,-1.432007 -0.612,-1.958008c-0.285004,-0.524994 -0.667999,-0.923996 -1.150009,-1.196991c-0.481995,-0.272003 -1.088989,-0.408005 -1.817993,-0.408005c-1.188004,0 -2.059998,0.535004 -2.615997,1.604996c-0.557007,1.070007 -0.835007,2.625 -0.835007,4.667007s0.281006,3.572006 0.844009,4.591995c0.562012,1.020996 1.444,1.531006 2.643997,1.531006z" fill="#FFFFFF"/>
      </g>
     </g>
    </g>
    <g id="svg_22"/>
   </g>
   <g transform="matrix(0.6645333065080763,0,0,0.6645333065080763,0,0) " id="svg_19">
    <g id="svg_20"/>
   </g>
   <g transform="matrix(0.6645333065080763,0,0,0.6645333065080763,0,0) " id="svg_17"/>
  </g>
 </g>
</svg>