<?xml version="1.0"?>
<svg width="232.00000000000003" height="207.87212" xmlns="http://www.w3.org/2000/svg">
 <metadata id="metadata8">image/svg+xml</metadata>
 <defs>
  <clipPath id="clipPath20" clipPathUnits="userSpaceOnUse">
   <path id="path22" d="m54.533585,63.148514l70.692833,0l0,-63.098l-70.692833,0l0,63.098z"/>
  </clipPath>
 </defs>
 <g>
  <title>background</title>
  <rect x="-1" y="-1" width="234" height="209.87212" id="canvas_background" fill="none"/>
 </g>
 <g>
  <title>Layer 1</title>
  <g opacity="0.94" id="svg_50">
   <path stroke-width="0" fill="#ffffff" id="svg_49" d="m-173.770721,-428.685303c-47.046631,0 -85.22937,38.182739 -85.22937,85.22934l0,397.737007c0,47.0466 38.182739,85.229332 85.22937,85.229332l198.868465,0l0,28.40979c0,15.653809 12.756042,28.409805 28.40979,28.409805l113.639103,0c15.653824,0 28.409836,-14.6595 28.409836,-28.409805l0,-28.40979l198.868423,0c47.046631,0 85.22937,-38.182732 85.22937,-85.229332l0,-397.737007c0,-47.0466 -38.182739,-85.22934 -85.22937,-85.22934l-568.195618,0zm0,56.81955l568.195618,0c15.65387,0 28.40979,12.756012 28.40979,28.40979l0,340.917397c0,15.653809 -12.75592,28.409821 -28.40979,28.409821l-568.195618,0c-15.653809,0 -28.409851,-12.756012 -28.409851,-28.409821l0,-340.917397c0,-15.653778 12.756042,-28.40979 28.409851,-28.40979zm568.195618,425.25898c16.278809,0 29.297668,13.04718 29.297668,29.297577c0,16.278809 -13.01886,29.297607 -29.297668,29.297607c-16.221924,0 -29.297546,-13.018799 -29.297546,-29.297607c0,-16.250397 13.075623,-29.297577 29.297546,-29.297577zm-482.966278,171.346458c-15.653778,0 -28.40979,28.40979 -28.40979,28.40979l0,28.409851l454.556549,0l0,-28.409851c0,-15.653809 -12.755951,-28.40979 -28.40979,-28.40979l-397.736969,0z"/>
  </g>
  <g transform="rotate(2.6254851818084717 116.72935485839899,103.93589782714861) matrix(3.2289142891555582,0,0,-3.2082611676707145,-174.48642021207417,204.31538854683444) " id="g10">
   <g id="g12">
    <path id="path14" d="m76.016579,6.73882l-14.172997,24.549001l14.172997,24.548998l28.345901,0l14.17395,-24.548998l-14.17395,-24.549001l-28.345901,0z" fill-rule="nonzero" fill="#2b8ee5"/>
   </g>
   <g transform="rotate(2.7633259296417236 90.18999481201199,31.28781890869138) " id="g16">
    <g clip-path="url(#clipPath20)" id="g18">
     <g id="g24">
      <path id="path26" d="m80.05809,13.73882l20.262894,0l10.131981,17.549001l-10.131981,17.548998l-20.262894,0l-10.132011,-17.548998l10.132011,-17.549001zm24.304878,-14l-28.346901,0c-2.499977,0 -4.810974,1.334 -6.061989,3.5l-14.172997,24.549001c-1.25,2.165998 -1.25,4.833998 0,6.999998l14.172997,24.549c1.251015,2.166 3.562012,3.5 6.061989,3.5l28.346901,0c2.501007,0 4.810982,-1.334 6.061996,-3.5l14.172951,-24.549c1.250992,-2.166 1.250992,-4.834 0,-6.999998l-14.172951,-24.549001c-1.251015,-2.166 -3.560989,-3.5 -6.061996,-3.5" fill-rule="nonzero" fill="#2b8ee5"/>
     </g>
    </g>
   </g>
  </g>
  <g id="svg_18" stroke="null">
   <path fill="#FFFFFF" d="m104.259804,119.721283l-0.233116,0c-0.001884,0.025238 -0.006607,0.057564 -0.009476,0.082809l0.361008,0.974861c-0.050201,-0.389931 -0.090973,-0.75058 -0.118416,-1.057671z" id="svg_5" stroke="null"/>
  </g>
  <text font-weight="bold" font-style="normal" stroke="null" transform="matrix(0.8975689943437429,0,0,1,-34.47216901886538,0) " xml:space="preserve" text-anchor="left" font-family="Helvetica, Arial, sans-serif" font-size="22" id="svg_61" y="146.769012" x="119.117303" stroke-opacity="null" stroke-width="0" fill="#ffffff">Frontend</text>
  <g stroke="null" transform="translate(5.000071048736572,25.33369255065918) translate(-9.333465576171875,23.667003631591797) translate(-45.66731643676758,34.33382034301758) " id="svg_67">
   <path fill="#ffffff" stroke="null" id="svg_66" d="m133.454544,-33.304886c-2.308899,0 -4.210831,1.698265 -4.210831,3.759918l0,3.759918l0,1.253304l0,45.118996l0,1.253296l1.40361,0l67.373367,0l1.403625,0l0,-1.253296l0,-45.118996l0,-1.253304l0,-3.759918c0,-2.061653 -1.901947,-3.759918 -4.210846,-3.759918l-61.758926,0zm0,2.506622l61.758926,0c0.793091,0 1.403625,0.545143 1.403625,1.253296l0,3.759918l-64.566162,0l0,-3.759918c0,-0.708153 0.610519,-1.253296 1.40361,-1.253296zm-1.40361,7.519821l64.566162,0l0,42.612381l-64.566162,0l0,-42.612381zm37.765945,4.974052a1.403752,1.253431 0 0 0 -0.175461,0.039169a1.403752,1.253431 0 0 0 -1.00885,0.783318l-12.632507,27.572723a1.417252,1.265485 0 0 0 2.631775,0.93998l12.632507,-27.572731a1.403752,1.253431 0 0 0 -1.447464,-1.762459zm-18.20311,7.519836a1.403752,1.253431 0 0 0 -0.131592,0.039162a1.403752,1.253431 0 0 0 -0.482483,0.156662l-9.825287,5.013229a1.403752,1.253431 0 0 0 0,2.193283l9.825287,5.013222a1.414535,1.263058 0 0 0 1.403625,-2.193283l-7.67601,-3.91658l7.67601,-3.91658a1.403752,1.253431 0 0 0 -0.789551,-2.389114zm25.089584,0.039162a1.403752,1.253431 0 0 0 -0.438629,2.349953l7.67598,3.91658l-7.67598,3.91658a1.414535,1.263058 0 0 0 1.40361,2.193283l9.825256,-5.013222a1.403752,1.253431 0 0 0 0,-2.193283l-9.825256,-5.013229a1.403752,1.253431 0 0 0 -0.964981,-0.156662z"/>
  </g>
 </g>
</svg>