<?xml version="1.0" encoding="utf-8"?>
<!-- Generator: Adobe Illustrator 16.0.3, SVG Export Plug-In . SVG Version: 6.00 Build 0)  -->
<!DOCTYPE svg PUBLIC "-//W3C//DTD SVG 1.1//EN" "http://www.w3.org/Graphics/SVG/1.1/DTD/svg11.dtd">
<svg version="1.1" id="Layer_1" xmlns="http://www.w3.org/2000/svg" xmlns:xlink="http://www.w3.org/1999/xlink" x="0px" y="0px"
	 width="185px" height="75px" viewBox="0 0 185 75" enable-background="new 0 0 185 75" xml:space="preserve">
<path fill="#FFFFFF" d="M77.935,51.555h-0.246c-0.002,0.025-0.007,0.057-0.01,0.082l0.381,0.965
	C78.007,52.216,77.964,51.859,77.935,51.555z"/>
<path fill="#FFFFFF" d="M24.574,9.231h2.73c1.416,0,2.68,0.91,3.641,2.933c0.151,0.303,0.455,0.455,0.809,0.303l5.258-2.477
	c0.354-0.151,0.354-0.557,0.202-0.859c-0.708-1.315-1.416-2.428-2.326-3.388c-1.719-1.819-4.045-2.781-7.382-2.781h-2.933
	c-6.27,0-10.163,3.741-10.163,9.202v14.612c0,5.46,3.893,9.202,10.163,9.202h2.933c2.882,0,5.005-0.758,6.623-2.124
	c1.213-1.062,2.225-2.426,3.084-4.146c0.151-0.303,0.151-0.606-0.202-0.758l-5.258-2.528c-0.354-0.152-0.658,0-0.809,0.303
	c-0.96,2.022-2.225,2.983-3.641,2.983h-2.73c-1.82,0-3.186-1.315-3.186-2.933V12.164C21.389,10.546,22.754,9.231,24.574,9.231z"/>
<path fill="#FFFFFF" d="M51.322,35.978h2.983c6.067,0,10.112-3.742,10.112-9.202V12.164c0-5.511-4.045-9.202-10.112-9.202h-2.983
	c-6.118,0-10.112,3.741-10.112,9.202v14.612C41.209,32.236,45.153,35.978,51.322,35.978z M48.136,12.164
	c0-1.567,1.466-2.933,3.186-2.933h2.983c1.769,0,3.084,1.315,3.084,2.933v14.612c0,1.618-1.264,2.933-3.084,2.933h-2.983
	c-1.77,0-3.186-1.365-3.186-2.933V12.164z"/>
<path fill="#FFFFFF" d="M93.945,25.764V13.226c0-5.966-3.944-9.657-10.112-9.657H71.192c-0.303,0-0.506,0.152-0.506,0.505v30.841
	c0,0.354,0.203,0.506,0.506,0.506h12.641C90.001,35.421,93.945,31.679,93.945,25.764z M86.967,26.22
	c0,1.618-1.416,2.882-3.134,2.882h-5.511c-0.405,0-0.556-0.152-0.556-0.506V10.395c0-0.354,0.151-0.556,0.556-0.556h5.511
	c1.718,0,3.134,1.415,3.134,2.932V26.22z"/>
<path fill="#FFFFFF" d="M115.923,2.727h-3.944c-0.575,0-1.096,0.336-1.286,0.825L96.743,34.533
	c-0.171,0.402-0.146,0.824,0.076,1.158c0.24,0.364,0.68,0.573,1.204,0.573h3.844c0.83,0,1.186-0.454,1.323-0.8l13.961-31.007
	c0.178-0.414,0.153-0.843-0.066-1.177C116.947,3.073,116.615,2.727,115.923,2.727z"/>
<path fill="#FFFFFF" d="M126.422,35.421c0.354,0,0.506-0.152,0.506-0.506v-7.077c0-4.702-0.151-8.646-0.303-10.466l0.202-0.051
	c0.202,0.607,0.657,1.72,1.062,2.478l8.292,15.269c0.102,0.202,0.354,0.354,0.557,0.354h5.156c0.354,0,0.507-0.152,0.507-0.506
	V4.074c0-0.354-0.203-0.505-0.507-0.505h-5.864c-0.354,0-0.455,0.152-0.455,0.505v7.179c0,4.247,0.151,8.545,0.253,10.567
	l-0.203,0.051c-0.15-0.505-0.656-1.669-1.062-2.477l-8.292-15.523c-0.1-0.202-0.303-0.303-0.556-0.303h-5.259
	c-0.303,0-0.506,0.152-0.506,0.505v30.841c0,0.354,0.203,0.506,0.506,0.506H126.422z"/>
<path fill="#FFFFFF" d="M167.612,5.237c-1.669-1.466-3.792-2.275-6.825-2.275h-3.69c-6.27,0-10.112,3.741-10.112,9.202v14.612
	c0,5.563,3.741,9.202,10.112,9.202h2.983c6.269,0,10.112-3.589,10.112-9.202v-8.04c0-0.354-0.152-0.505-0.506-0.505H158.31
	c-0.303,0-0.505,0.152-0.505,0.505v4.804c0,0.354,0.202,0.506,0.505,0.506h4.298c0.354,0,0.557,0.151,0.557,0.505v2.224
	c0,1.668-1.264,2.933-3.084,2.933h-2.983c-1.769,0-3.187-1.315-3.187-2.933V12.164c0-1.618,1.366-2.933,3.187-2.933h3.487
	c1.416,0,2.631,0.91,3.591,2.933c0.15,0.303,0.456,0.455,0.81,0.303l5.258-2.477c0.354-0.151,0.354-0.505,0.201-0.809
	C169.636,7.563,168.726,6.249,167.612,5.237z"/>
<path fill="#FFFFFF" d="M50.883,53.526c-2.781-1.062-5.763-1.82-5.763-4.096c0-1.82,1.365-3.034,3.135-3.034h0.758
	c1.72,0,2.882,0.81,3.59,2.579c0.151,0.455,0.455,0.556,0.758,0.405l5.005-2.529c0.304-0.151,0.455-0.707,0.152-1.213
	c-0.405-0.759-0.91-1.518-1.517-2.174c-1.769-1.972-4.297-3.388-7.989-3.388h-0.758c-6.32,0-10.213,3.742-10.213,9.454
	c0,5.814,3.742,7.988,8.393,9.859c3.034,1.214,5.663,1.871,5.663,4.4c0,2.071-1.618,2.981-3.438,2.981h-1.264
	c-1.719,0-2.882-0.809-3.59-2.578c-0.152-0.455-0.455-0.557-0.759-0.403l-5.005,2.526c-0.303,0.152-0.455,0.709-0.152,1.215
	c0.455,0.808,1.011,1.617,1.668,2.324c1.719,1.921,4.248,3.237,7.837,3.237h1.617c6.422,0,10.163-3.692,10.163-9.405
	C59.175,57.773,55.687,55.396,50.883,53.526z"/>
<path fill="#FFFFFF" d="M80.286,41.037c-0.124-0.253-0.308-0.354-0.615-0.354h-5.465c-0.368,0-0.491,0.101-0.614,0.354L61.496,71.88
	c-0.185,0.404,0.062,0.657,0.614,0.657h6.004l8.494-21.481l8.494,21.481h6.666c0.615,0,0.799-0.253,0.615-0.657L80.286,41.037z"/>
<path fill="#FFFFFF" d="M118.737,40.684h-5.866c-0.354,0-0.454,0.15-0.454,0.506v7.18c0,4.247,0.151,8.544,0.253,10.567l-0.202,0.05
	c-0.152-0.506-0.658-1.667-1.063-2.478l-8.291-15.521c-0.103-0.203-0.304-0.304-0.556-0.304h-5.26c-0.302,0-0.505,0.15-0.505,0.506
	v30.842c0,0.354,0.203,0.506,0.505,0.506h5.967c0.354,0,0.505-0.152,0.505-0.506v-7.079c0-4.703-0.15-8.646-0.302-10.465
	l0.201-0.051c0.202,0.606,0.657,1.718,1.063,2.477l8.291,15.27c0.102,0.202,0.354,0.354,0.557,0.354h5.157
	c0.354,0,0.505-0.152,0.505-0.506V41.189C119.242,40.834,119.04,40.684,118.737,40.684z"/>
<path fill="#FFFFFF" d="M137.631,53.526c-2.782-1.062-5.765-1.82-5.765-4.096c0-1.82,1.365-3.034,3.135-3.034h0.758
	c1.721,0,2.883,0.81,3.59,2.579c0.151,0.455,0.456,0.556,0.76,0.405l5.005-2.529c0.302-0.151,0.456-0.707,0.151-1.213
	c-0.403-0.759-0.91-1.518-1.516-2.174c-1.771-1.972-4.298-3.388-7.99-3.388h-0.758c-6.319,0-10.213,3.742-10.213,9.454
	c0,5.814,3.741,7.988,8.393,9.859c3.034,1.214,5.663,1.871,5.663,4.4c0,2.071-1.618,2.981-3.438,2.981h-1.264
	c-1.719,0-2.882-0.809-3.591-2.578c-0.15-0.455-0.453-0.557-0.758-0.403l-5.005,2.526c-0.304,0.152-0.454,0.709-0.152,1.215
	c0.454,0.808,1.011,1.617,1.669,2.324c1.719,1.921,4.246,3.237,7.837,3.237h1.617c6.421,0,10.164-3.692,10.164-9.405
	C145.923,57.773,142.434,55.396,137.631,53.526z"/>
<path fill="#FFFFFF" d="M19.198,58.518l12.539-8.739c0.203-0.121,0.303-0.304,0.303-0.484c0-0.243-0.151-0.485-0.303-0.79
	l-1.517-2.972c-0.101-0.243-0.203-0.364-0.405-0.364s-0.354,0.121-0.758,0.425L13.585,56.454c-0.151,0.121-0.252,0.243-0.252,0.546
	v4.188c0,0.242,0.101,0.424,0.252,0.545l15.219,10.681c0.455,0.303,0.86,0.606,1.011,0.606c0.152,0,0.304-0.122,0.405-0.365
	l1.466-3.154c0.152-0.365,0.304-0.545,0.304-0.789c0-0.182-0.101-0.364-0.304-0.486l-12.488-8.615
	c-0.202-0.182-0.354-0.364-0.354-0.547C18.844,58.881,18.996,58.698,19.198,58.518z"/>
<path fill="#FFFFFF" d="M171.288,56.454l-15.218-10.68c-0.455-0.303-0.859-0.606-1.012-0.606c-0.153,0-0.304,0.122-0.404,0.364
	l-1.467,3.155c-0.151,0.364-0.302,0.546-0.302,0.789c0,0.182,0.099,0.364,0.302,0.485l12.488,8.617
	c0.202,0.181,0.354,0.363,0.354,0.546c0,0.182-0.151,0.364-0.354,0.545l-12.539,8.738c-0.202,0.121-0.303,0.305-0.303,0.485
	c0,0.243,0.15,0.485,0.303,0.789l1.518,2.974c0.101,0.242,0.202,0.363,0.404,0.363c0.203,0,0.354-0.121,0.757-0.424l15.473-10.862
	c0.152-0.122,0.253-0.242,0.253-0.546V57C171.541,56.759,171.44,56.575,171.288,56.454z"/>
</svg>
