<?xml version="1.0" encoding="utf-8"?>
<!-- Generator: Adobe Illustrator 16.0.3, SVG Export Plug-In . SVG Version: 6.00 Build 0)  -->
<!DOCTYPE svg PUBLIC "-//W3C//DTD SVG 1.1//EN" "http://www.w3.org/Graphics/SVG/1.1/DTD/svg11.dtd">
<svg version="1.1" id="Layer_1" xmlns="http://www.w3.org/2000/svg" xmlns:xlink="http://www.w3.org/1999/xlink" x="0px" y="0px"
	 width="230px" height="30px" viewBox="0 0 230 30" enable-background="new 0 0 230 30" xml:space="preserve">
<path fill="#FFFFFF" d="M162.901,12.352h-0.171c-0.001,0.019-0.005,0.04-0.007,0.057l0.267,0.673
	C162.951,12.813,162.922,12.564,162.901,12.352z"/>
<path fill="#FFFFFF" d="M9.621,8.72h1.903c0.987,0,1.869,0.635,2.539,2.043c0.105,0.212,0.317,0.317,0.564,0.212l3.667-1.728
	c0.247-0.105,0.247-0.388,0.141-0.6c-0.494-0.917-0.987-1.692-1.622-2.361c-1.198-1.269-2.82-1.939-5.146-1.939H9.621
	c-4.372,0-7.086,2.608-7.086,6.416v10.189c0,3.807,2.714,6.417,7.086,6.417h2.045c2.008,0,3.489-0.531,4.617-1.482
	c0.846-0.739,1.552-1.691,2.151-2.889c0.106-0.212,0.106-0.425-0.141-0.531l-3.667-1.761c-0.247-0.107-0.459,0-0.564,0.212
	c-0.67,1.408-1.552,2.08-2.539,2.08H9.621c-1.269,0-2.221-0.917-2.221-2.046V10.764C7.399,9.637,8.352,8.72,9.621,8.72z"/>
<path fill="#FFFFFF" d="M28.271,27.37h2.08c4.23,0,7.051-2.61,7.051-6.417V10.764c0-3.843-2.821-6.416-7.051-6.416h-2.08
	c-4.266,0-7.051,2.608-7.051,6.416v10.189C21.22,24.76,23.97,27.37,28.271,27.37z M26.05,10.764c0-1.092,1.022-2.043,2.221-2.043
	h2.08c1.233,0,2.15,0.917,2.15,2.043v10.189c0,1.129-0.881,2.046-2.15,2.046h-2.08c-1.234,0-2.221-0.954-2.221-2.046V10.764z"/>
<path fill="#FFFFFF" d="M57.991,20.248v-8.743c0-4.16-2.75-6.734-7.051-6.734h-8.814c-0.211,0-0.353,0.106-0.353,0.353v21.503
	c0,0.247,0.142,0.354,0.353,0.354h8.814C55.241,26.981,57.991,24.371,57.991,20.248z M53.125,20.564c0,1.129-0.987,2.01-2.186,2.01
	h-3.842c-0.283,0-0.389-0.106-0.389-0.353V9.53c0-0.246,0.105-0.387,0.389-0.387h3.842c1.199,0,2.186,0.986,2.186,2.044V20.564z"/>
<path fill="#FFFFFF" d="M73.315,4.184h-2.75c-0.402,0-0.765,0.235-0.897,0.576l-9.726,21.6c-0.119,0.282-0.102,0.574,0.053,0.81
	c0.167,0.254,0.474,0.4,0.839,0.4h2.68c0.579,0,0.826-0.316,0.923-0.56L74.172,5.39c0.124-0.289,0.107-0.587-0.046-0.82
	C74.029,4.426,73.797,4.184,73.315,4.184z"/>
<path fill="#FFFFFF" d="M80.636,26.981c0.247,0,0.353-0.107,0.353-0.354v-4.934c0-3.279-0.105-6.028-0.21-7.297l0.14-0.036
	c0.142,0.423,0.458,1.198,0.741,1.728l5.781,10.646c0.071,0.14,0.248,0.247,0.389,0.247h3.595c0.246,0,0.354-0.107,0.354-0.354
	V5.124c0-0.246-0.142-0.353-0.354-0.353h-4.089c-0.247,0-0.318,0.106-0.318,0.353v5.006c0,2.96,0.106,5.958,0.177,7.37l-0.142,0.034
	c-0.104-0.352-0.458-1.164-0.741-1.727L80.53,4.983c-0.069-0.142-0.211-0.212-0.387-0.212h-3.667c-0.211,0-0.353,0.106-0.353,0.353
	v21.503c0,0.247,0.142,0.354,0.353,0.354H80.636z"/>
<path fill="#FFFFFF" d="M109.356,5.935c-1.164-1.023-2.644-1.587-4.758-1.587h-2.574c-4.372,0-7.051,2.608-7.051,6.416v10.189
	c0,3.879,2.609,6.417,7.051,6.417h2.08c4.371,0,7.051-2.504,7.051-6.417v-5.606c0-0.247-0.106-0.353-0.353-0.353h-7.933
	c-0.211,0-0.352,0.106-0.352,0.353v3.35c0,0.247,0.141,0.354,0.352,0.354h2.997c0.247,0,0.388,0.105,0.388,0.352v1.552
	c0,1.164-0.881,2.046-2.151,2.046h-2.08c-1.234,0-2.222-0.917-2.222-2.046V10.764c0-1.127,0.952-2.043,2.222-2.043h2.431
	c0.988,0,1.835,0.635,2.504,2.043c0.105,0.212,0.318,0.317,0.564,0.212l3.666-1.728c0.247-0.105,0.247-0.352,0.141-0.563
	C110.768,7.556,110.132,6.64,109.356,5.935z"/>
<path fill="#FFFFFF" d="M144.039,13.726c-1.939-0.74-4.019-1.269-4.019-2.855c0-1.269,0.951-2.116,2.186-2.116h0.528
	c1.199,0,2.011,0.565,2.504,1.798c0.105,0.318,0.316,0.388,0.529,0.283l3.489-1.763c0.211-0.104,0.317-0.493,0.105-0.846
	c-0.282-0.529-0.635-1.058-1.058-1.516c-1.233-1.375-2.996-2.362-5.57-2.362h-0.528c-4.408,0-7.121,2.609-7.121,6.591
	c0,4.055,2.609,5.571,5.852,6.875c2.115,0.846,3.949,1.304,3.949,3.068c0,1.443-1.128,2.08-2.397,2.08h-0.88
	c-1.201,0-2.011-0.566-2.505-1.799c-0.105-0.316-0.317-0.389-0.528-0.281l-3.49,1.761c-0.212,0.106-0.318,0.495-0.106,0.847
	c0.317,0.563,0.705,1.129,1.164,1.622c1.198,1.34,2.961,2.257,5.466,2.257h1.126c4.477,0,7.087-2.573,7.087-6.559
	C149.821,16.688,147.389,15.03,144.039,13.726z"/>
<path fill="#FFFFFF" d="M164.541,5.018c-0.086-0.177-0.216-0.247-0.429-0.247h-3.811c-0.257,0-0.342,0.07-0.429,0.247l-8.434,21.505
	c-0.129,0.284,0.042,0.458,0.427,0.458h4.188l5.922-14.978l5.923,14.978h4.648c0.428,0,0.557-0.174,0.428-0.458L164.541,5.018z"/>
<path fill="#FFFFFF" d="M191.352,4.771h-4.091c-0.246,0-0.315,0.105-0.315,0.353v5.007c0,2.961,0.105,5.957,0.176,7.368
	l-0.142,0.034c-0.106-0.352-0.458-1.16-0.74-1.727l-5.78-10.823c-0.072-0.142-0.213-0.212-0.388-0.212h-3.669
	c-0.21,0-0.352,0.105-0.352,0.353V26.63c0,0.247,0.142,0.352,0.352,0.352h4.162c0.246,0,0.352-0.104,0.352-0.352v-4.937
	c0-3.279-0.105-6.028-0.212-7.297l0.142-0.035c0.141,0.422,0.458,1.196,0.741,1.726l5.779,10.646
	c0.072,0.143,0.248,0.247,0.389,0.247h3.597c0.246,0,0.352-0.104,0.352-0.352V5.124C191.703,4.876,191.563,4.771,191.352,4.771z"/>
<path fill="#FFFFFF" d="M204.525,13.726c-1.939-0.74-4.02-1.269-4.02-2.855c0-1.269,0.951-2.116,2.186-2.116h0.528
	c1.199,0,2.011,0.565,2.504,1.798c0.105,0.318,0.317,0.388,0.529,0.283l3.489-1.763c0.211-0.104,0.318-0.493,0.106-0.846
	c-0.282-0.529-0.636-1.058-1.058-1.516c-1.234-1.375-2.997-2.362-5.571-2.362h-0.528c-4.405,0-7.121,2.609-7.121,6.591
	c0,4.055,2.609,5.571,5.853,6.875c2.114,0.846,3.947,1.304,3.947,3.068c0,1.443-1.127,2.08-2.396,2.08h-0.88
	c-1.2,0-2.012-0.566-2.505-1.799c-0.105-0.316-0.316-0.389-0.528-0.281l-3.49,1.761c-0.213,0.106-0.316,0.495-0.106,0.847
	c0.317,0.563,0.705,1.129,1.164,1.622c1.198,1.34,2.961,2.257,5.466,2.257h1.126c4.477,0,7.087-2.573,7.087-6.559
	C210.307,16.688,207.874,15.03,204.525,13.726z"/>
<path fill="#FFFFFF" d="M121.946,17.207l8.742-6.093c0.142-0.085,0.212-0.212,0.212-0.339c0-0.17-0.106-0.338-0.212-0.55
	l-1.058-2.072c-0.07-0.169-0.141-0.253-0.281-0.253c-0.142,0-0.247,0.084-0.529,0.296l-10.787,7.573
	c-0.105,0.085-0.177,0.17-0.177,0.379v2.921c0,0.168,0.071,0.296,0.177,0.379l10.611,7.448c0.316,0.211,0.599,0.423,0.705,0.423
	c0.105,0,0.211-0.086,0.281-0.256l1.023-2.199c0.104-0.253,0.211-0.378,0.211-0.549c0-0.127-0.071-0.256-0.211-0.34l-8.708-6.007
	c-0.142-0.127-0.247-0.253-0.247-0.38S121.805,17.333,121.946,17.207z"/>
<path fill="#FFFFFF" d="M227.993,15.768l-10.61-7.446c-0.317-0.211-0.6-0.423-0.707-0.423c-0.106,0-0.21,0.084-0.281,0.253
	l-1.021,2.201c-0.106,0.253-0.21,0.38-0.21,0.55c0,0.127,0.067,0.254,0.21,0.339l8.707,6.007c0.141,0.126,0.246,0.254,0.246,0.382
	c0,0.125-0.105,0.254-0.246,0.379l-8.743,6.094c-0.142,0.084-0.211,0.211-0.211,0.338c0,0.169,0.104,0.339,0.211,0.552l1.058,2.071
	c0.071,0.17,0.142,0.254,0.281,0.254c0.144,0,0.247-0.084,0.529-0.295l10.788-7.576c0.107-0.083,0.177-0.167,0.177-0.379v-2.921
	C228.17,15.981,228.101,15.854,227.993,15.768z"/>
</svg>
