<?xml version="1.0" encoding="utf-8"?>
<!-- Generator: Adobe Illustrator 18.0.0, SVG Export Plug-In . SVG Version: 6.00 Build 0)  -->
<!DOCTYPE svg PUBLIC "-//W3C//DTD SVG 1.1//EN" "http://www.w3.org/Graphics/SVG/1.1/DTD/svg11.dtd">
<svg version="1.1" xmlns="http://www.w3.org/2000/svg" xmlns:xlink="http://www.w3.org/1999/xlink" x="0px" y="0px"
	 viewBox="0 0 2080 480" enable-background="new 0 0 2080 480" xml:space="preserve">
<g id="CodinsSansLogo">
	<g>
		<path fill="#1E88E5" d="M128.31,247.363v-23.408c13.834-5.865,20.752-14.277,20.752-25.234v-58.438
			c0-7.857,1.66-14.941,4.98-21.25s7.471-11.398,12.451-15.273c4.98-3.873,10.68-7.139,17.1-9.795
			c6.417-2.656,12.477-4.482,18.179-5.479c5.699-0.996,11.149-1.549,16.353-1.66l-0.664,32.041
			c-10.404,0.332-19.009,2.407-25.815,6.226s-10.21,8.882-10.21,15.19v58.105c0,7.528-1.385,14.111-4.15,19.756
			c-2.768,5.645-7.416,11.899-13.945,18.76c2.877,3.1,5.035,5.536,6.475,7.305c1.437,1.772,3.237,4.345,5.396,7.72
			c2.158,3.377,3.735,6.973,4.731,10.791s1.494,7.997,1.494,12.534v62.588c0,5.977,3.126,10.903,9.38,14.775
			c6.251,3.873,15.465,6.309,27.642,7.305l-0.664,32.041c-5.204-0.112-10.625-0.721-16.27-1.826
			c-5.645-1.108-11.678-3.017-18.096-5.728c-6.42-2.713-12.119-6.005-17.1-9.878c-4.98-3.875-9.105-8.993-12.368-15.356
			c-3.266-6.366-4.897-13.473-4.897-21.333v-65.244C149.062,261.641,142.144,253.231,128.31,247.363z"/>
		<path fill="#1E88E5" d="M230.276,247.363v-23.408c13.834-5.865,20.752-14.277,20.752-25.234v-58.438
			c0-7.857,1.66-14.941,4.98-21.25s7.471-11.398,12.451-15.273c4.98-3.873,10.68-7.139,17.1-9.795
			c6.417-2.656,12.477-4.482,18.179-5.479c5.699-0.996,11.149-1.549,16.353-1.66l-0.664,32.041
			c-10.404,0.332-19.009,2.407-25.815,6.226s-10.21,8.882-10.21,15.19v58.105c0,7.528-1.385,14.111-4.15,19.756
			c-2.768,5.645-7.416,11.899-13.945,18.76c2.877,3.1,5.035,5.536,6.475,7.305c1.437,1.772,3.237,4.345,5.396,7.72
			c2.158,3.377,3.735,6.973,4.731,10.791s1.494,7.997,1.494,12.534v62.588c0,5.977,3.126,10.903,9.38,14.775
			c6.251,3.873,15.465,6.309,27.642,7.305l-0.664,32.041c-5.204-0.112-10.625-0.721-16.27-1.826
			c-5.645-1.108-11.678-3.017-18.096-5.728c-6.42-2.713-12.119-6.005-17.1-9.878c-4.98-3.875-9.105-8.993-12.368-15.356
			c-3.266-6.366-4.897-13.473-4.897-21.333v-65.244C251.028,261.641,244.11,253.231,230.276,247.363z"/>
		<path fill="#1E88E5" d="M410.983,343.076c-15.431,0-29.736-3.857-42.92-11.572c-13.184-7.713-23.683-18.384-31.494-32.007
			c-7.814-13.623-11.719-28.587-11.719-44.897c0-8.006,0.975-16.429,2.93-25.269c1.952-8.837,4.71-17.578,8.276-26.221
			c3.563-8.643,8.031-16.846,13.403-24.609c5.37-7.764,11.279-14.623,17.725-20.581c6.445-5.956,13.744-10.693,21.899-14.209
			c8.153-3.516,16.576-5.273,25.269-5.273c9.862,0,21.24,3.028,34.131,9.082v-4.248h26.66v48.926h-26.66v-11.133
			c-9.181-9.178-21.094-13.77-35.742-13.77c-10.353,0-20.215,4.859-29.59,14.575c-9.375,9.718-16.676,21.24-21.899,34.57
			c-5.226,13.33-7.837,25.854-7.837,37.573c0,16.505,5.64,30.666,16.919,42.48c11.279,11.817,24.829,17.725,40.649,17.725
			c11.913,0,22.753-3.271,32.52-9.814c9.764-6.542,17.725-15.868,23.877-27.979l21.68,21.68
			c-8.595,13.966-19.826,24.953-33.691,32.959C441.5,339.073,426.705,343.076,410.983,343.076z"/>
		<path fill="#1E88E5" d="M568.688,342.783c-17.384,0-32.032-6.786-43.945-20.361c-11.916-13.573-17.871-29.979-17.871-49.219
			c0-14.257,3.197-27.587,9.595-39.99c6.395-12.401,14.989-22.24,25.781-29.517c10.79-7.274,22.435-10.913,34.937-10.913
			c11.426,0,21.922,3.175,31.494,9.521c9.569,6.349,17.04,14.845,22.412,25.488c5.37,10.645,8.057,22.169,8.057,34.57
			c0,14.355-3.175,27.711-9.521,40.063c-6.349,12.355-14.941,22.169-25.781,29.443C593.005,339.146,581.286,342.783,568.688,342.783
			z M575.866,219.443c-10.744,0-20.068,5.324-27.979,15.967c-7.91,10.645-11.865,23.048-11.865,37.207
			c0,12.012,3.051,22.266,9.155,30.762c6.102,8.496,13.939,12.744,23.511,12.744c10.741,0,20.288-5.273,28.638-15.82
			s12.524-22.801,12.524-36.768c0-11.913-3.321-22.24-9.961-30.981C593.248,223.815,585.241,219.443,575.866,219.443z"/>
		<path fill="#1E88E5" d="M756.423,142.686l29.297-5.127l-4.395,201.562l-28.857,5.127v-15.527
			c-12.012,8.4-25.001,12.598-38.965,12.598c-8.789,0-16.699-1.927-23.73-5.786c-7.031-3.857-12.648-8.984-16.846-15.381
			c-4.2-6.395-7.397-13.5-9.595-21.313c-2.197-7.812-3.296-15.967-3.296-24.463c0-4.198,0.194-8.446,0.586-12.744
			c0.389-4.296,1.22-9.178,2.49-14.648c1.268-5.468,2.879-10.595,4.834-15.381c1.952-4.784,4.662-9.544,8.13-14.282
			c3.465-4.736,7.445-8.764,11.938-12.085c4.491-3.319,10.057-6.029,16.699-8.13c6.64-2.099,13.964-3.149,21.973-3.149
			c7.127,0,16.649,1.71,28.564,5.127L756.423,142.686z M753.347,291.514l1.465-61.523c-10.646-5.175-20.508-7.764-29.59-7.764
			c-5.859,0-11.06,1.149-15.601,3.442c-4.541,2.296-8.082,5.177-10.62,8.643c-2.541,3.468-4.591,7.594-6.152,12.378
			c-1.563,4.786-2.614,9.302-3.149,13.55c-0.538,4.248-0.806,8.668-0.806,13.257c0,3.419,0.194,6.812,0.586,10.181
			c0.389,3.369,1.146,6.958,2.271,10.767c1.122,3.809,2.538,7.13,4.248,9.961c1.708,2.833,4.076,5.177,7.104,7.031
			c3.026,1.856,6.493,2.783,10.4,2.783c10.643,0,19.896-2.733,27.759-8.203C749.122,300.548,753.15,295.714,753.347,291.514z"/>
		<path fill="#1E88E5" d="M847.185,139.756l-2.344,36.475l-29.443,5.127l2.783-36.621L847.185,139.756z M815.983,196.152
			l29.736-4.834v147.803l-29.736,5.127V196.152z"/>
		<path fill="#1E88E5" d="M969.44,344.248v-48.633c0-11.913-0.025-20.263-0.073-25.049c-0.05-4.784-0.318-10.547-0.806-17.285
			c-0.49-6.738-1.271-12.108-2.344-16.113c-1.172-4.98-3.076-8.91-5.713-11.792c-2.637-2.879-5.763-4.321-9.375-4.321
			c-5.958,0-11.769,1.808-17.432,5.42c-5.665,3.614-11.33,10.499-16.992,20.654c-4.102,8.203-7.471,17.335-10.107,27.393
			c-2.637,10.059-3.955,19.336-3.955,27.832l-0.293,36.475l-28.564,5.42V196.152l28.857-5.42v29.59
			c5.956-8.592,13.207-15.381,21.753-20.361c8.544-4.98,17.651-7.471,27.319-7.471c21.973,0,35.79,11.476,41.455,34.424
			c1.366,5.665,2.367,12.817,3.003,21.46c0.634,8.643,1.025,16.113,1.172,22.412s0.268,17.603,0.366,33.911l0.293,33.545
			L969.44,344.248z"/>
		<path fill="#1E88E5" d="M1147.8,189.121l-3.223,141.943c-0.392,19.922-6.006,35.252-16.846,45.996
			c-10.84,10.741-25.928,16.113-45.264,16.113c-11.719,0-25.832-1.808-42.334-5.42l6.006-28.125
			c12.891,3.124,24.999,4.688,36.328,4.688c5.468,0,10.277-0.879,14.429-2.637c4.149-1.758,7.347-3.882,9.595-6.372
			c2.245-2.49,4.076-5.445,5.493-8.862c1.415-3.419,2.318-6.347,2.71-8.789c0.389-2.44,0.634-4.93,0.732-7.471
			c-8.4,6.445-18.896,9.668-31.494,9.668c-17.482,0-32.007-6.64-43.579-19.922c-11.572-13.28-17.358-30.176-17.358-50.684
			c0-9.57,1.732-18.945,5.2-28.125c3.465-9.178,8.226-17.381,14.282-24.609c6.054-7.226,13.623-13.037,22.705-17.432
			s18.846-6.592,29.297-6.592c9.082,0,17.088,1.417,24.023,4.248v-3.076L1147.8,189.121z M1117.185,226.914
			c-6.251-3.905-13.33-5.859-21.24-5.859c-12.989,0-23.877,4.761-32.666,14.282s-13.184,21.021-13.184,34.497
			c0,4.298,0.634,8.766,1.904,13.403c1.268,4.639,3.149,9.132,5.64,13.477c2.49,4.346,5.907,7.91,10.254,10.693
			c4.344,2.783,9.203,4.175,14.575,4.175c4.395-0.096,8.471-0.879,12.231-2.344c3.758-1.465,7.42-3.905,10.986-7.324
			c3.563-3.417,6.372-8.446,8.423-15.088c2.051-6.64,3.076-14.598,3.076-23.877V226.914z"/>
		<path fill="#1E88E5" d="M1250.134,348.076c-18.955,0-36.15-5.441-51.108-16.172c-14.967-10.733-25.538-25.121-31.419-42.765
			l-1.872-5.616l41.136-6.373l1.39,3.893c2.157,6.045,5.591,11.295,10.203,15.605c4.708,4.402,9.784,7.626,15.09,9.583
			c5.372,1.982,10.853,2.987,16.287,2.987c10.379,0,19.139-2.579,26.036-7.667c6.518-4.807,9.687-10.87,9.687-18.535
			c0-1.771-0.157-3.378-0.468-4.777c-0.146-0.661-0.649-2.178-2.344-4.849c-1.271-2.003-3.096-3.894-5.422-5.621
			c-2.519-1.866-6.362-3.946-11.419-6.18c-5.169-2.281-11.462-4.44-18.704-6.415c-8.269-2.19-16.151-4.911-23.394-8.08
			c-7.301-3.194-14.39-7.175-21.07-11.832c-7.012-4.885-12.651-10.909-16.759-17.902c-4.199-7.14-6.329-15.016-6.329-23.407
			c0-9.376,1.707-17.841,5.071-25.16c3.372-7.33,7.757-13.308,13.034-17.77c5.138-4.344,11.336-7.93,18.422-10.662
			c6.902-2.658,13.768-4.502,20.404-5.481c6.517-0.959,13.39-1.445,20.432-1.445c6.28,0,12.475,0.463,18.412,1.376
			c6.051,0.931,12.208,2.632,18.3,5.057c6.19,2.467,11.69,5.596,16.352,9.301c4.869,3.876,8.86,8.995,11.864,15.216
			c3.003,6.227,4.525,13.266,4.525,20.924c0,3.137-0.406,7.053-1.242,11.971l-0.591,3.47l-42.854,7.6l4.281-8.819
			c1.319-2.717,1.988-6.319,1.988-10.707c0-3.065-0.844-5.618-2.579-7.806c-1.913-2.409-4.337-4.186-7.409-5.432
			c-3.547-1.435-7.103-2.5-10.565-3.166c-3.48-0.669-7.007-1.009-10.481-1.009c-7.509,0-13.948,0.749-19.14,2.226
			c-4.795,1.364-8.293,3.142-10.398,5.286c-2.276,2.316-3.87,4.545-4.739,6.626c-0.874,2.09-1.299,4.262-1.299,6.643
			c0,4.658,2.514,8.686,7.686,12.312c6.043,4.241,15.58,8.186,28.348,11.727c22.936,6.337,40.389,14.956,51.871,25.617
			c11.946,11.096,18.004,24.847,18.004,40.871c0,8.568-1.645,16.661-4.889,24.055c-3.242,7.385-7.629,13.681-13.037,18.716
			c-5.24,4.877-11.279,9.106-17.948,12.57c-6.643,3.451-13.575,6.014-20.603,7.615
			C1263.906,347.27,1256.928,348.076,1250.134,348.076z M1179.183,291.56c5.45,13.076,14.065,23.895,25.672,32.219
			c13.225,9.487,28.458,14.298,45.279,14.298c6.047,0,12.277-0.722,18.517-2.145c6.199-1.413,12.327-3.68,18.216-6.74
			c5.869-3.048,11.166-6.753,15.745-11.015c4.405-4.101,8.003-9.288,10.693-15.416c2.685-6.119,4.046-12.86,4.046-20.036
			c0-13.316-4.844-24.288-14.809-33.543c-10.295-9.558-26.355-17.4-47.734-23.307c-14.069-3.902-24.347-8.212-31.423-13.178
			c-7.924-5.557-11.942-12.454-11.942-20.499c0-3.68,0.697-7.212,2.072-10.499c1.36-3.26,3.66-6.55,6.832-9.778
			c3.382-3.443,8.222-6.026,14.796-7.896c6.082-1.73,13.441-2.608,21.876-2.608c4.107,0,8.269,0.4,12.37,1.188
			c4.098,0.788,8.279,2.039,12.43,3.717c4.651,1.886,8.516,4.74,11.489,8.484c3.149,3.97,4.746,8.688,4.746,14.022
			c0,2.322-0.155,4.513-0.464,6.567l18.316-3.248c0.376-2.731,0.565-5.021,0.565-6.834c0-6.141-1.188-11.719-3.532-16.578
			c-2.344-4.855-5.4-8.805-9.084-11.736c-3.893-3.095-8.545-5.733-13.824-7.837c-5.391-2.145-10.815-3.647-16.122-4.464
			c-5.435-0.836-11.118-1.26-16.891-1.26c-6.556,0-12.94,0.45-18.975,1.338c-5.906,0.871-12.053,2.527-18.267,4.919
			c-6.041,2.328-11.277,5.345-15.561,8.967c-4.149,3.508-7.65,8.323-10.404,14.311c-2.758,5.999-4.157,13.058-4.157,20.982
			c0,6.677,1.619,12.676,4.95,18.339c3.374,5.742,8.035,10.709,13.856,14.765c6.146,4.284,12.659,7.942,19.36,10.874
			c6.774,2.964,14.17,5.516,21.981,7.584c7.757,2.115,14.523,4.442,20.147,6.924c5.814,2.569,10.177,4.955,13.336,7.295
			c3.317,2.462,5.978,5.253,7.91,8.296c1.941,3.061,3.139,5.689,3.661,8.038c0.469,2.114,0.706,4.449,0.706,6.947
			c0,10.91-4.627,19.853-13.751,26.583c-8.653,6.382-19.41,9.619-31.972,9.619c-6.62,0-13.264-1.213-19.748-3.605
			c-6.562-2.42-12.772-6.343-18.457-11.659c-4.779-4.465-8.547-9.727-11.234-15.682L1179.183,291.56z"/>
		<path fill="#1E88E5" d="M1430.524,350.28v-10.013c-9.503,3.824-18.879,5.758-27.959,5.758c-18.209,0-33.464-6.775-45.339-20.135
			c-11.725-13.188-17.669-30.323-17.669-50.929c0-6.771,0.826-14.049,2.455-21.631c1.635-7.615,4.42-15.619,8.277-23.79
			c3.879-8.218,8.653-15.686,14.188-22.198c5.699-6.701,13.093-12.297,21.978-16.635c8.953-4.37,18.907-6.586,29.586-6.586
			c14.696,0,31.676,4.866,50.468,14.463l2.726,1.392v142.996L1430.524,350.28z M1440.524,324.439v13.777l18.711-3.532V206.126
			c-16.264-7.968-30.782-12.005-43.193-12.005c-9.146,0-17.624,1.875-25.199,5.572c-7.639,3.729-13.945,8.483-18.746,14.127
			c-4.966,5.841-9.26,12.566-12.764,19.989c-3.531,7.479-6.068,14.753-7.543,21.62c-1.481,6.894-2.232,13.465-2.232,19.531
			c0,18.082,5.095,32.982,15.144,44.285c10.035,11.291,22.42,16.779,37.864,16.779c9.812,0,20.148-2.681,30.723-7.968
			L1440.524,324.439z M1402.126,317.168c-7.737-0.115-14.359-2.643-19.756-7.514c-5.129-4.624-8.757-10.135-10.781-16.378
			c-1.912-5.894-2.881-12.154-2.881-18.608c0-4.696,0.498-9.692,1.479-14.851c0.991-5.219,2.702-10.651,5.086-16.144
			c2.404-5.542,5.385-10.594,8.858-15.014c3.655-4.652,8.422-8.509,14.169-11.465c5.817-2.992,12.279-4.509,19.206-4.509
			c7.332,0,14.291,1.483,20.684,4.408l2.969,1.358l-1.259,84.018l-2.063,1.468c-4.668,3.321-10.237,6.358-16.553,9.027
			C1414.691,315.754,1408.245,317.168,1402.126,317.168z M1417.507,222.686c-5.32,0-10.243,1.145-14.632,3.402
			c-4.459,2.293-8.12,5.237-10.88,8.75c-2.944,3.748-5.484,8.06-7.548,12.817c-2.09,4.815-3.582,9.536-4.436,14.03
			c-0.865,4.546-1.304,8.914-1.304,12.984c0,5.405,0.805,10.627,2.393,15.523c1.497,4.617,4.104,8.554,7.968,12.038
			c3.597,3.246,7.892,4.861,13.132,4.939c4.699,0,9.835-1.149,15.189-3.414c4.726-1.997,8.948-4.2,12.588-6.564l1.082-72.212
			C1426.81,223.456,1422.266,222.686,1417.507,222.686z"/>
		<path fill="#1E88E5" d="M1583.688,350.409v-54.793c0-11.743-0.024-20.153-0.073-24.999c-0.05-4.673-0.316-10.385-0.793-16.975
			c-0.464-6.389-1.199-11.497-2.187-15.18l-0.037-0.149c-0.968-4.115-2.493-7.332-4.534-9.562c-1.685-1.839-3.492-2.697-5.687-2.697
			c-5.03,0-9.853,1.516-14.743,4.635c-4.915,3.136-10.049,9.452-15.259,18.776c-3.905,7.83-7.166,16.685-9.692,26.323
			c-2.517,9.598-3.792,18.536-3.792,26.564l-0.326,40.621l-38.531,7.311V192.004l38.857-7.298v21.874
			c4.308-4.268,9.065-7.926,14.235-10.939c9.278-5.408,19.316-8.151,29.837-8.151c24.122,0,40.136,13.218,46.31,38.226
			c1.429,5.923,2.48,13.414,3.135,22.291c0.639,8.706,1.037,16.33,1.185,22.663c0.146,6.329,0.267,17.449,0.367,33.997l0.328,37.626
			L1583.688,350.409z M1498.034,200.301V338.21l18.598-3.529l0.26-32.368c0-8.843,1.386-18.634,4.118-29.06
			c2.713-10.347,6.236-19.889,10.473-28.361l0.104-0.199c6.13-10.992,12.236-18.33,18.67-22.435
			c6.456-4.117,13.226-6.205,20.121-6.205c4.984,0,9.501,2.056,13.062,5.945c3.196,3.493,5.509,8.185,6.875,13.949
			c1.155,4.341,1.967,9.894,2.481,16.971c0.491,6.794,0.767,12.713,0.818,17.594c0.049,4.882,0.073,13.326,0.073,25.102v42.472
			l18.529-3.896l-0.258-29.451c-0.099-16.274-0.221-27.655-0.365-33.839c-0.143-6.167-0.533-13.624-1.159-22.163
			c-0.614-8.335-1.582-15.284-2.877-20.653c-5.081-20.58-17.053-30.596-36.595-30.596c-8.728,0-17.071,2.285-24.802,6.79
			c-7.867,4.585-14.65,10.94-20.161,18.89l-9.109,13.141v-39.553L1498.034,200.301z"/>
		<path fill="#1E88E5" d="M1698.64,347.783c-14.213,0-27.432-4.417-39.288-13.129c-11.907-8.744-20.072-20.785-24.268-35.788
			l-1.492-5.336l37.87-6.509l1.324,4.14c2.018,6.303,5.344,10.991,10.169,14.332c4.902,3.394,10.033,5.043,15.685,5.043
			c6.655,0,11.993-1.335,15.865-3.968c4.406-2.999,4.916-5.765,4.916-7.584c0-3.91-1.598-6.841-5.029-9.223
			c-4.303-2.984-10.645-5.653-18.849-7.933c-5.165-1.389-9.943-2.89-14.163-4.448c-4.33-1.597-8.864-3.732-13.477-6.346
			c-4.772-2.704-8.854-5.739-12.132-9.019c-3.402-3.4-6.219-7.611-8.367-12.514c-2.174-4.96-3.276-10.441-3.276-16.289
			c0-7.35,1.365-14.001,4.059-19.767c2.695-5.779,6.181-10.456,10.358-13.9c4.024-3.318,8.891-6.059,14.463-8.148
			c5.395-2.024,10.688-3.397,15.73-4.082c8.816-1.193,18.561-1.456,28.057-0.066c4.309,0.631,8.939,1.819,13.766,3.531
			c4.998,1.773,9.467,4.136,13.283,7.023c4.015,3.042,7.358,7.172,9.941,12.278c2.593,5.134,3.907,11.042,3.907,17.564
			c0,3.248-0.408,7.127-1.249,11.86l-0.601,3.382l-35.919,6.958c10.271,4.068,18.5,8.976,24.548,14.659
			c9.162,8.617,13.807,19.33,13.807,31.842c0,7.652-1.52,14.711-4.518,20.98c-2.99,6.25-6.811,11.328-11.354,15.095
			c-4.347,3.604-9.354,6.659-14.882,9.081c-5.45,2.389-10.646,4.054-15.444,4.949
			C1707.359,347.336,1702.837,347.783,1698.64,347.783z M1646.431,301.47c3.873,10.431,10.071,18.685,18.841,25.125
			c10.104,7.424,21.331,11.188,33.368,11.188c3.583,0,7.487-0.39,11.605-1.16c4.051-0.756,8.514-2.195,13.267-4.279
			c4.676-2.047,8.885-4.611,12.513-7.619c3.422-2.837,6.354-6.778,8.715-11.713c2.349-4.91,3.539-10.518,3.539-16.665
			c0-9.779-3.486-17.812-10.657-24.556c-7.516-7.064-19.353-12.853-35.18-17.205c-9.477-2.706-16.2-5.362-20.602-8.134
			c-6.834-4.303-8.269-9.734-8.269-13.533c0-8.991,5.274-19.8,30.402-20.234c0.001,0,0.004,0,0.006,0
			c6.59,0,12.433,1.258,17.455,3.739c6.089,3.012,9.305,8.107,9.305,14.737c0,2.16-0.166,4.331-0.496,6.5l16.894-3.273
			c0.369-2.621,0.556-4.88,0.556-6.742c0-4.941-0.953-9.333-2.832-13.053c-1.89-3.735-4.263-6.702-7.053-8.816
			c-2.995-2.266-6.56-4.142-10.591-5.572c-4.213-1.495-8.206-2.524-11.87-3.061c-3.746-0.548-7.544-0.826-11.287-0.826
			c-4.826,0-9.528,0.305-13.979,0.907c-4.301,0.584-8.865,1.773-13.562,3.535c-4.536,1.7-8.442,3.888-11.612,6.501
			c-3.02,2.489-5.596,5.993-7.658,10.414c-2.07,4.434-3.12,9.66-3.12,15.538c0,4.458,0.819,8.588,2.436,12.275
			c1.646,3.757,3.759,6.938,6.279,9.457c2.643,2.645,6.003,5.131,9.99,7.39c4.144,2.348,8.184,4.254,12.01,5.665
			c3.938,1.455,8.425,2.862,13.338,4.184c9.456,2.627,16.61,5.686,21.912,9.362c6.104,4.237,9.328,10.267,9.328,17.439
			c0,4.347-1.612,10.626-9.291,15.852c-5.562,3.783-12.792,5.7-21.49,5.7c-7.646,0-14.838-2.295-21.376-6.822
			c-5.491-3.802-9.67-8.971-12.463-15.403L1646.431,301.47z M1704.06,222.686c-20.488,0.354-20.488,7.791-20.488,10.234
			c0,1.306,0.409,3.063,3.597,5.071c3.538,2.228,9.585,4.572,17.972,6.967c4.083,1.123,7.939,2.345,11.562,3.665l2.108-6.184
			c1.28-3.756,1.93-7.55,1.93-11.277c0-2.787-1.082-4.459-3.736-5.772C1713.372,223.596,1709.016,222.686,1704.06,222.686z"/>
		<path fill="#1E88E5" d="M1849.724,231.426v23.408c-13.837,5.868-20.752,14.277-20.752,25.234v58.438
			c0,7.86-1.66,14.941-4.98,21.25s-7.471,11.398-12.451,15.273c-4.98,3.873-10.683,7.139-17.1,9.795
			c-6.42,2.656-12.479,4.482-18.179,5.479c-5.701,0.996-11.151,1.549-16.353,1.66l0.664-32.041
			c10.401-0.332,19.009-2.407,25.815-6.226s10.21-8.882,10.21-15.19V280.4c0-7.525,1.383-14.111,4.15-19.756
			c2.765-5.645,7.413-11.896,13.945-18.76c-2.88-3.097-5.038-5.533-6.475-7.305c-1.439-1.769-3.237-4.342-5.396-7.72
			c-2.158-3.375-3.735-6.973-4.731-10.791s-1.494-7.995-1.494-12.534v-62.588c0-5.977-3.128-10.9-9.38-14.775
			c-6.254-3.873-15.468-6.309-27.642-7.305l0.664-32.041c5.201,0.112,10.625,0.721,16.27,1.826
			c5.645,1.108,11.676,3.017,18.096,5.728c6.417,2.713,12.119,6.005,17.1,9.878c4.98,3.875,9.103,8.993,12.368,15.356
			c3.264,6.366,4.897,13.476,4.897,21.333v65.244C1828.972,217.148,1835.887,225.561,1849.724,231.426z"/>
		<path fill="#1E88E5" d="M1951.69,231.426v23.408c-13.837,5.868-20.752,14.277-20.752,25.234v58.438c0,7.86-1.66,14.941-4.98,21.25
			s-7.471,11.398-12.451,15.273c-4.98,3.873-10.683,7.139-17.1,9.795c-6.42,2.656-12.479,4.482-18.179,5.479
			c-5.701,0.996-11.151,1.549-16.353,1.66l0.664-32.041c10.401-0.332,19.009-2.407,25.815-6.226s10.21-8.882,10.21-15.19V280.4
			c0-7.525,1.383-14.111,4.15-19.756c2.765-5.645,7.413-11.896,13.945-18.76c-2.88-3.097-5.038-5.533-6.475-7.305
			c-1.439-1.769-3.237-4.342-5.396-7.72c-2.158-3.375-3.735-6.973-4.731-10.791s-1.494-7.995-1.494-12.534v-62.588
			c0-5.977-3.128-10.9-9.38-14.775c-6.254-3.873-15.468-6.309-27.642-7.305l0.664-32.041c5.201,0.112,10.625,0.721,16.27,1.826
			c5.645,1.108,11.676,3.017,18.096,5.728c6.417,2.713,12.119,6.005,17.1,9.878c4.98,3.875,9.103,8.993,12.368,15.356
			c3.264,6.366,4.897,13.476,4.897,21.333v65.244C1930.938,217.148,1937.854,225.561,1951.69,231.426z"/>
	</g>
</g>
<g id="CSLogo">
</g>
<g id="favicon">
</g>
<g id="CSLogoVarieties">
</g>
<g id="CSLogoDefine">
</g>
<g id="CodingSansDefinition">
</g>
</svg>
